# Blender v2.79 (sub 0) OBJ File: 'Avatar_1.blend'
# www.blender.org
mtllib dirk4THISISITLUIGI.mtl
o Cube
v 0.429833 4.437737 0.628926
v 0.827425 5.067144 0.628926
v 0.000000 4.686763 0.628926
v 0.000000 4.824415 0.628926
v -0.429833 4.437737 0.628926
v -0.827425 5.067144 0.628926
v 0.429833 4.437737 0.543234
v 0.827425 5.067144 0.543234
v 0.000000 4.686763 0.543234
v 0.000000 4.824415 0.543234
v -0.429833 4.437737 0.543234
v -0.827425 5.067144 0.543234
v 0.577145 4.699097 0.183124
v 0.594007 4.689336 0.184337
v 0.594007 4.669815 0.184337
v 0.577145 4.660054 0.183124
v 0.560282 4.669815 0.181911
v 0.560282 4.689336 0.181911
v 0.568497 4.687538 0.581644
v 0.554586 4.695501 0.581644
v 0.568497 4.671612 0.581644
v 0.554586 4.663649 0.581644
v 0.540626 4.671612 0.581644
v 0.540626 4.687538 0.581644
v 0.593980 4.699097 -0.159446
v 0.610842 4.689336 -0.158233
v 0.610842 4.669815 -0.158233
v 0.593980 4.660055 -0.159446
v 0.577117 4.669815 -0.160659
v 0.577117 4.689336 -0.160659
v 0.545613 4.689336 0.390183
v 0.562475 4.699096 0.391396
v 0.579337 4.689336 0.392609
v 0.579337 4.669815 0.392609
v 0.545613 4.669815 0.390183
v 0.562475 4.660054 0.391396
v 0.583200 4.699097 0.118864
v 0.600062 4.689336 0.120077
v 0.600062 4.669815 0.120077
v 0.583200 4.660054 0.118864
v 0.566338 4.669815 0.117651
v 0.566338 4.689336 0.117651
v 0.620523 4.499325 -0.350442
v 0.619488 4.492517 -0.332154
v 0.602043 4.488744 -0.324106
v 0.585615 4.491779 -0.334346
v 0.586650 4.498588 -0.352634
v 0.604113 4.502360 -0.360682
v 0.601042 4.585322 -0.312921
v 0.619162 4.579289 -0.302865
v 0.618100 4.566753 -0.285352
v 0.598917 4.560250 -0.277895
v 0.580787 4.566283 -0.287952
v 0.581850 4.578819 -0.305465
v 0.599634 4.649739 -0.247515
v 0.617419 4.642540 -0.239569
v 0.616711 4.627620 -0.226181
v 0.598217 4.619898 -0.220738
v 0.580426 4.627097 -0.228683
v 0.581135 4.642017 -0.242072
v -0.577145 4.699097 0.183124
v -0.594007 4.689336 0.184337
v -0.594007 4.669815 0.184337
v -0.577145 4.660054 0.183124
v -0.560282 4.669815 0.181911
v -0.560282 4.689336 0.181911
v -0.568497 4.687538 0.581644
v -0.554586 4.695501 0.581644
v -0.568497 4.671612 0.581644
v -0.554586 4.663649 0.581644
v -0.540626 4.671612 0.581644
v -0.540626 4.687538 0.581644
v -0.593980 4.699097 -0.159446
v -0.610842 4.689336 -0.158233
v -0.610842 4.669815 -0.158233
v -0.593980 4.660055 -0.159446
v -0.577117 4.669815 -0.160659
v -0.577117 4.689336 -0.160659
v -0.545613 4.689336 0.390183
v -0.562475 4.699096 0.391396
v -0.579337 4.689336 0.392609
v -0.579337 4.669815 0.392609
v -0.545613 4.669815 0.390183
v -0.562475 4.660054 0.391396
v -0.583200 4.699097 0.118864
v -0.600062 4.689336 0.120077
v -0.600062 4.669815 0.120077
v -0.583200 4.660054 0.118864
v -0.566338 4.669815 0.117651
v -0.566338 4.689336 0.117651
v -0.620523 4.499325 -0.350442
v -0.619488 4.492517 -0.332154
v -0.602043 4.488744 -0.324106
v -0.585615 4.491779 -0.334346
v -0.586650 4.498588 -0.352634
v -0.604113 4.502360 -0.360682
v -0.601042 4.585322 -0.312921
v -0.619162 4.579289 -0.302865
v -0.618100 4.566753 -0.285352
v -0.598917 4.560250 -0.277895
v -0.580787 4.566283 -0.287952
v -0.581850 4.578819 -0.305465
v -0.599634 4.649739 -0.247515
v -0.617419 4.642540 -0.239569
v -0.616711 4.627620 -0.226181
v -0.598217 4.619898 -0.220738
v -0.580426 4.627097 -0.228683
v -0.581135 4.642017 -0.242072
vt 0.500001 0.208802
vt 0.500001 0.170104
vt 0.759710 0.000065
vt 0.999937 0.398740
vt 0.000063 0.398740
vt 0.240292 0.000063
vt 0.292700 0.660764
vt 0.327889 0.657179
vt 0.320610 0.671995
vt 0.293396 0.665120
vt 0.269578 0.680255
vt 0.257861 0.664427
vt 0.485937 0.496223
vt 0.485937 0.781387
vt 0.232343 0.448763
vt 0.349524 0.872316
vt 0.226902 0.886883
vt 0.032813 0.706704
vt 0.824426 0.743251
vt 0.829980 0.715868
vt 0.834382 0.715357
vt 0.828828 0.742739
vt 0.842989 0.715367
vt 0.837435 0.742749
vt 0.886133 0.742755
vt 0.889695 0.715371
vt 0.897937 0.715890
vt 0.894376 0.743275
vt 0.902360 0.716407
vt 0.898799 0.743792
vt 0.695061 0.866629
vt 0.699249 0.866107
vt 0.717089 0.947690
vt 0.713584 0.947694
vt 0.683596 0.749968
vt 0.689316 0.777350
vt 0.680709 0.777360
vt 0.674989 0.749978
vt 0.676520 0.777882
vt 0.670800 0.750501
vt 0.969570 0.546859
vt 0.963718 0.547127
vt 0.957846 0.546859
vt 0.957846 0.546323
vt 0.963718 0.546055
vt 0.969570 0.546323
vt 0.860989 0.626619
vt 0.852381 0.626609
vt 0.869510 0.546059
vt 0.876532 0.546068
vt 0.847980 0.627121
vt 0.866004 0.546055
vt 0.707857 0.866097
vt 0.724112 0.947681
vt 0.912034 0.627650
vt 0.907611 0.627133
vt 0.913667 0.546057
vt 0.917371 0.546057
vt 0.899369 0.626614
vt 0.906865 0.546055
vt 0.663826 0.596671
vt 0.650210 0.631387
vt 0.646021 0.631909
vt 0.659944 0.594356
vt 0.671597 0.602368
vt 0.658817 0.631377
vt 0.675486 0.605750
vt 0.663236 0.631888
vt 0.881224 0.890322
vt 0.876532 0.861360
vt 0.884775 0.861879
vt 0.889814 0.888004
vt 0.818383 0.896014
vt 0.804779 0.861331
vt 0.813386 0.861341
vt 0.826118 0.890317
vt 0.814529 0.899396
vt 0.800377 0.861843
vt 0.889197 0.862396
vt 0.869734 0.947695
vt 0.837281 0.927300
vt 0.840803 0.923018
vt 0.871950 0.943333
vt 0.847844 0.915562
vt 0.876532 0.935544
vt 0.904501 0.935501
vt 0.891431 0.915546
vt 0.900083 0.912370
vt 0.911976 0.932073
vt 0.724111 0.561633
vt 0.696696 0.581363
vt 0.693133 0.577080
vt 0.721855 0.557271
vt 0.686047 0.569624
vt 0.717225 0.549482
vt 0.682523 0.566451
vt 0.714851 0.546055
vt 0.907803 0.947658
vt 0.902415 0.943294
vt 0.917371 0.936437
vt 0.915285 0.944230
vt 0.592706 0.750501
vt 0.597111 0.751012
vt 0.602833 0.778394
vt 0.598428 0.777883
vt 0.605718 0.751002
vt 0.611440 0.778384
vt 0.942690 0.742764
vt 0.938171 0.743279
vt 0.939704 0.715893
vt 0.944223 0.715378
vt 0.929833 0.743789
vt 0.931366 0.716403
vt 0.771794 0.627121
vt 0.789849 0.546055
vt 0.793354 0.546059
vt 0.775986 0.627643
vt 0.761004 0.743782
vt 0.752397 0.743772
vt 0.757959 0.716390
vt 0.766566 0.716400
vt 0.748205 0.743250
vt 0.753767 0.715868
vt 0.957846 0.547930
vt 0.957846 0.547395
vt 0.963698 0.547127
vt 0.969570 0.547395
vt 0.969570 0.547930
vt 0.963698 0.548198
vt 0.629984 0.867131
vt 0.646021 0.947682
vt 0.638999 0.947691
vt 0.621376 0.867142
vt 0.635493 0.947695
vt 0.616972 0.866630
vt 0.800377 0.546068
vt 0.784593 0.627653
vt 0.938203 0.627646
vt 0.947340 0.546055
vt 0.954160 0.546061
vt 0.946540 0.627136
vt 0.957846 0.546063
vt 0.951060 0.626621
vt 0.742120 0.897080
vt 0.738252 0.899395
vt 0.724112 0.861842
vt 0.728304 0.862364
vt 0.749858 0.891383
vt 0.736911 0.862374
vt 0.931523 0.888010
vt 0.922936 0.891389
vt 0.917371 0.862391
vt 0.925709 0.861881
vt 0.936661 0.890333
vt 0.930228 0.861366
vt 0.585726 0.597737
vt 0.593497 0.603434
vt 0.580942 0.632411
vt 0.572335 0.632421
vt 0.581852 0.594356
vt 0.567930 0.631909
vt 0.636761 0.546055
vt 0.639004 0.550416
vt 0.607981 0.570733
vt 0.604433 0.566451
vt 0.643634 0.558205
vt 0.615068 0.578188
vt 0.646021 0.561633
vt 0.618606 0.581363
vt 0.952486 0.932091
vt 0.945091 0.936450
vt 0.931451 0.916661
vt 0.940063 0.912381
vt 0.800377 0.936478
vt 0.795792 0.944267
vt 0.764498 0.924126
vt 0.771541 0.916670
vt 0.793439 0.947694
vt 0.760993 0.927299
vt 0.948431 0.947675
vt 0.943064 0.944242
vt 0.957846 0.935525
vt 0.955818 0.943317
vt 0.597394 0.605750
vn 0.0000 0.6304 0.7763
vn 0.0000 -0.5441 0.8390
vn 0.1946 -0.7914 0.5794
vn 0.6691 0.5048 0.5454
vn -0.6691 0.5048 0.5454
vn -0.1946 -0.7914 0.5794
vn 0.0000 0.6304 -0.7763
vn 0.6691 0.5048 -0.5454
vn 0.1946 -0.7914 -0.5794
vn 0.0000 -0.5441 -0.8390
vn -0.1946 -0.7914 -0.5794
vn -0.6691 0.5048 -0.5454
vn 0.0088 0.9999 0.0005
vn -0.0037 1.0000 -0.0003
vn 0.8621 0.5016 0.0710
vn 0.8663 0.4962 0.0576
vn 0.8621 -0.5016 0.0710
vn 0.8663 -0.4962 0.0576
vn -0.0037 -1.0000 -0.0003
vn 0.0088 -0.9999 0.0005
vn -0.8640 -0.4983 -0.0711
vn -0.8619 -0.5038 -0.0572
vn -0.0048 0.9999 0.0091
vn -0.8659 0.4986 -0.0395
vn -0.6934 0.3951 0.6025
vn -0.0106 0.7862 0.6179
vn -0.8640 0.4983 -0.0711
vn -0.8619 0.5038 -0.0572
vn 0.6695 0.3936 0.6299
vn -0.6934 -0.3951 0.6025
vn -0.0106 -0.7862 0.6179
vn 0.6695 -0.3936 0.6299
vn 0.8628 -0.5023 0.0576
vn 0.8628 0.5023 0.0576
vn -0.8659 -0.4986 -0.0395
vn -0.0048 -0.9999 0.0091
vn -0.8202 0.4424 -0.3627
vn -0.8193 0.5391 -0.1952
vn 0.0087 0.9720 -0.2348
vn 0.0397 0.7965 -0.6033
vn -0.8924 -0.3620 0.2695
vn -0.9082 -0.4125 0.0709
vn -0.0300 -0.7739 0.6325
vn -0.0226 -0.9512 0.3077
vn 0.8586 -0.3725 0.3522
vn 0.8947 -0.4154 0.1639
vn 0.8612 0.4279 -0.2742
vn 0.8322 0.5435 -0.1096
vn 0.0666 -0.2211 -0.9730
vn 0.0406 0.6102 -0.7912
vn 0.8702 0.3160 -0.3779
vn 0.7282 -0.3784 -0.5714
vn 0.8558 -0.3086 0.4152
vn 0.6807 -0.7200 0.1346
vn -0.0499 -0.6218 0.7816
vn -0.0160 -0.8997 0.4363
vn -0.9005 -0.2878 0.3260
vn -0.6746 -0.7364 0.0498
vn -0.8253 0.3261 -0.4609
vn -0.6385 -0.3964 -0.6596
vn -0.0088 0.9999 0.0005
vn -0.8663 0.4962 0.0576
vn -0.8621 0.5016 0.0710
vn 0.0037 1.0000 -0.0003
vn -0.8663 -0.4962 0.0576
vn -0.8621 -0.5016 0.0710
vn -0.0088 -0.9999 0.0005
vn 0.0037 -1.0000 -0.0003
vn 0.8619 -0.5038 -0.0572
vn 0.8640 -0.4983 -0.0711
vn 0.0048 0.9999 0.0091
vn 0.0106 0.7862 0.6179
vn 0.6934 0.3951 0.6025
vn 0.8659 0.4986 -0.0395
vn 0.8619 0.5038 -0.0572
vn 0.8640 0.4983 -0.0711
vn -0.6695 0.3936 0.6299
vn -0.6695 -0.3936 0.6299
vn 0.0106 -0.7862 0.6179
vn 0.6934 -0.3951 0.6025
vn -0.8628 -0.5023 0.0576
vn -0.8628 0.5023 0.0576
vn 0.8659 -0.4986 -0.0395
vn 0.0048 -0.9999 0.0091
vn 0.8202 0.4424 -0.3627
vn -0.0397 0.7965 -0.6033
vn -0.0087 0.9720 -0.2348
vn 0.8193 0.5391 -0.1952
vn 0.8924 -0.3620 0.2695
vn 0.9082 -0.4124 0.0709
vn 0.0300 -0.7739 0.6325
vn 0.0226 -0.9512 0.3077
vn -0.8586 -0.3725 0.3522
vn -0.8947 -0.4154 0.1639
vn -0.8612 0.4279 -0.2742
vn -0.8322 0.5435 -0.1096
vn -0.0666 -0.2211 -0.9730
vn -0.7282 -0.3784 -0.5714
vn -0.8702 0.3160 -0.3779
vn -0.0406 0.6102 -0.7912
vn -0.6807 -0.7200 0.1346
vn -0.8558 -0.3086 0.4152
vn 0.0160 -0.8997 0.4363
vn 0.0499 -0.6218 0.7816
vn 0.6746 -0.7364 0.0498
vn 0.9005 -0.2878 0.3260
vn 0.6385 -0.3964 -0.6596
vn 0.8253 0.3261 -0.4609
usemtl Material
s 1
f 4/1/1 3/2/2 1/3/3 2/4/4
f 4/1/1 6/5/5 5/6/6 3/2/2
f 10/7/7 8/8/8 7/9/9 9/10/10
f 10/7/7 9/10/10 11/11/11 12/12/12
f 2/13/4 1/14/3 7/9/9 8/8/8
f 4/15/1 2/13/4 8/8/8 10/7/7
f 1/14/3 3/16/2 9/10/10 7/9/9
f 5/17/6 6/18/5 12/12/12 11/11/11
f 6/18/5 4/15/1 10/7/7 12/12/12
f 3/16/2 5/17/6 11/11/11 9/10/10
f 37/19/13 13/20/14 14/21/15 38/22/16
f 38/22/16 14/21/15 15/23/17 39/24/18
f 39/25/18 15/26/17 16/27/19 40/28/20
f 40/28/20 16/27/19 17/29/21 41/30/22
f 32/31/23 31/32/24 24/33/25 20/34/26
f 41/35/22 17/36/21 18/37/27 42/38/28
f 42/38/28 18/37/27 13/39/14 37/40/13
f 19/41/29 20/42/26 24/43/25 23/44/30 22/45/31 21/46/32
f 34/47/33 33/48/34 19/49/29 21/50/32
f 33/48/34 32/51/23 20/52/26 19/49/29
f 31/32/24 35/53/35 23/54/30 24/33/25
f 35/55/35 36/56/36 22/57/31 23/58/30
f 36/56/36 34/59/33 21/60/32 22/57/31
f 60/61/37 30/62/38 25/63/39 55/64/40
f 59/65/41 29/66/42 30/62/38 60/61/37
f 58/67/43 28/68/44 29/66/42 59/65/41
f 57/69/45 27/70/46 28/71/44 58/72/43
f 56/73/47 26/74/48 27/75/46 57/76/45
f 55/77/40 25/78/39 26/74/48 56/73/47
f 16/27/19 15/26/17 34/59/33 36/56/36
f 17/29/21 16/27/19 36/56/36 35/55/35
f 18/37/27 17/36/21 35/53/35 31/32/24
f 14/21/15 13/20/14 32/51/23 33/48/34
f 15/23/17 14/21/15 33/48/34 34/47/33
f 13/39/14 18/37/27 31/32/24 32/31/23
f 30/62/38 42/38/28 37/40/13 25/63/39
f 29/66/42 41/35/22 42/38/28 30/62/38
f 28/71/44 40/28/20 41/30/22 29/79/42
f 27/70/46 39/25/18 40/28/20 28/71/44
f 26/74/48 38/22/16 39/24/18 27/75/46
f 25/78/39 37/19/13 38/22/16 26/74/48
f 48/80/49 49/81/50 50/82/51 43/83/52
f 43/83/52 50/82/51 51/84/53 44/85/54
f 44/86/54 51/87/53 52/88/55 45/89/56
f 45/90/56 52/91/55 53/92/57 46/93/58
f 46/93/58 53/92/57 54/94/59 47/95/60
f 47/95/60 54/94/59 49/96/50 48/97/49
f 48/98/49 43/99/52 44/86/54 45/89/56 46/100/58 47/101/60
f 49/81/50 55/77/40 56/73/47 50/82/51
f 50/82/51 56/73/47 57/76/45 51/84/53
f 51/87/53 57/69/45 58/72/43 52/88/55
f 52/91/55 58/67/43 59/65/41 53/92/57
f 53/92/57 59/65/41 60/61/37 54/94/59
f 54/94/59 60/61/37 55/64/40 49/96/50
f 85/102/61 86/103/62 62/104/63 61/105/64
f 86/103/62 87/106/65 63/107/66 62/104/63
f 87/108/65 88/109/67 64/110/68 63/111/66
f 88/109/67 89/112/69 65/113/70 64/110/68
f 80/114/71 68/115/72 72/116/73 79/117/74
f 89/118/69 90/119/75 66/120/76 65/121/70
f 90/119/75 85/122/61 61/123/64 66/120/76
f 67/124/77 69/125/78 70/126/79 71/127/80 72/128/73 68/129/72
f 82/130/81 69/131/78 67/132/77 81/133/82
f 81/133/82 67/132/77 68/134/72 80/135/71
f 79/117/74 72/116/73 71/136/80 83/137/83
f 83/138/83 71/139/80 70/140/79 84/141/84
f 84/141/84 70/140/79 69/142/78 82/143/81
f 108/144/85 103/145/86 73/146/87 78/147/88
f 107/148/89 108/144/85 78/147/88 77/149/90
f 106/150/91 107/151/89 77/152/90 76/153/92
f 105/154/93 106/150/91 76/153/92 75/155/94
f 104/156/95 105/157/93 75/158/94 74/159/96
f 103/160/86 104/156/95 74/159/96 73/161/87
f 64/110/68 84/141/84 82/143/81 63/111/66
f 65/113/70 83/138/83 84/141/84 64/110/68
f 66/120/76 79/117/74 83/137/83 65/121/70
f 62/104/63 81/133/82 80/135/71 61/105/64
f 63/107/66 82/130/81 81/133/82 62/104/63
f 61/123/64 80/114/71 79/117/74 66/120/76
f 78/147/88 73/146/87 85/122/61 90/119/75
f 77/149/90 78/147/88 90/119/75 89/118/69
f 76/153/92 77/152/90 89/112/69 88/109/67
f 75/155/94 76/153/92 88/109/67 87/108/65
f 74/159/96 75/158/94 87/106/65 86/103/62
f 73/161/87 74/159/96 86/103/62 85/102/61
f 96/162/97 91/163/98 98/164/99 97/165/100
f 91/163/98 92/166/101 99/167/102 98/164/99
f 92/166/101 93/168/103 100/169/104 99/167/102
f 93/170/103 94/171/105 101/172/106 100/173/104
f 94/174/105 95/175/107 102/176/108 101/177/106
f 95/175/107 96/178/97 97/179/100 102/176/108
f 96/180/97 95/181/107 94/171/105 93/170/103 92/182/101 91/183/98
f 97/165/100 98/164/99 104/156/95 103/160/86
f 98/164/99 99/167/102 105/157/93 104/156/95
f 99/167/102 100/169/104 106/184/91 105/157/93
f 100/173/104 101/172/106 107/151/89 106/150/91
f 101/177/106 102/176/108 108/144/85 107/148/89
f 102/176/108 97/179/100 103/145/86 108/144/85
