# Blender v2.79 (sub 0) OBJ File: 'Avatar.blend'
# www.blender.org
mtllib Pyramid.mtl
o Cube_Cube.001
v 0.865453 4.052941 0.931767
v 0.000000 5.675666 0.066314
v -0.865453 4.052941 0.931767
v 0.931765 4.052941 -0.865451
v 0.066312 5.675666 0.000002
v 0.931765 4.052941 0.865455
v -0.865453 4.052941 -0.931763
v 0.000000 5.675666 -0.066310
v 0.865453 4.052941 -0.931763
v -0.931765 4.052941 0.865455
v -0.066312 5.675666 0.000002
v -0.931765 4.052941 -0.865451
v -0.900000 4.000000 0.900002
v -0.900000 4.000000 -0.899998
v 0.900000 4.000000 0.900002
v 0.900000 4.000000 -0.899998
vt 1.033203 0.084570
vt 0.500000 1.202539
vt -0.033203 0.084570
vt -0.000000 0.000000
vt -0.000000 0.000000
vt -0.000000 0.000000
vt -0.000000 0.000000
vt -0.000000 0.000000
vt -0.000000 0.000000
vt -0.000000 0.000000
vt -0.000000 0.000000
vt -0.000000 0.000000
vt -0.000000 0.000000
vt -0.000000 0.000005
vt -0.000000 0.000000
vt -0.000000 0.000000
vt -0.000000 -0.010032
vt -0.000000 0.000000
vt -0.000000 0.000000
vn -0.0000 0.4706 0.8824
vn 0.0000 0.4673 0.8841
vn -0.0016 0.4690 0.8832
vn 0.8805 0.4740 0.0036
vn 0.8861 0.4636 -0.0000
vn 0.8815 0.4721 -0.0016
vn 0.0000 0.4706 -0.8824
vn -0.0000 0.4673 -0.8841
vn 0.0016 0.4690 -0.8832
vn -0.8805 0.4740 -0.0036
vn -0.8861 0.4636 0.0000
vn -0.8815 0.4721 0.0016
vn 0.0115 -0.9999 -0.0115
vn -0.0001 -1.0000 -0.0001
vn 0.0001 -1.0000 0.0001
vn -0.0115 -0.9999 0.0115
usemtl Material
s 1
f 1/1/1 2/2/2 3/3/3
usemtl Material_BoundaryNEW.png.001
f 4/4/4 5/5/5 6/6/6
f 7/7/7 8/8/8 9/9/9
f 10/10/10 11/11/11 12/12/12
f 13/13/13 3/14/3 10/10/10
f 5/5/5 11/11/11 2/15/2
f 12/12/12 7/7/7 14/16/14
f 6/6/6 1/17/1 15/18/15
f 9/9/9 4/4/4 16/19/16
f 13/13/13 12/12/12 14/16/14
f 2/15/2 10/10/10 3/14/3
f 14/16/14 9/9/9 16/19/16
f 16/19/16 6/6/6 15/18/15
f 15/18/15 3/14/3 13/13/13
f 8/8/8 12/12/12 11/11/11
f 4/4/4 8/8/8 5/5/5
f 2/15/2 6/6/6 5/5/5
f 16/19/16 13/13/13 14/16/14
f 5/5/5 8/8/8 11/11/11
f 13/13/13 10/10/10 12/12/12
f 2/15/2 11/11/11 10/10/10
f 14/16/14 7/7/7 9/9/9
f 16/19/16 4/4/4 6/6/6
f 15/18/15 1/17/1 3/14/3
f 8/8/8 7/7/7 12/12/12
f 4/4/4 9/9/9 8/8/8
f 2/15/2 1/17/1 6/6/6
f 16/19/16 15/18/15 13/13/13
