# Blender v2.79 (sub 0) OBJ File: 'Bloklite Energy Drink.blend'
# www.blender.org
mtllib Bloklite Energy Drink.mtl
o Cylinder.000
v -1.500000 3.435112 1.159554
v -1.500000 4.180189 1.159554
v -1.329777 3.435112 1.205165
v -1.329777 4.180189 1.205165
v -1.205165 3.435112 1.329777
v -1.205165 4.180189 1.329777
v -1.159554 3.435112 1.500000
v -1.159554 4.180189 1.500000
v -1.205165 3.435112 1.670223
v -1.205165 4.180189 1.670223
v -1.329777 3.435112 1.794835
v -1.329777 4.180189 1.794835
v -1.500000 3.435112 1.840446
v -1.500000 4.180189 1.840446
v -1.670223 3.435112 1.794835
v -1.670223 4.180189 1.794835
v -1.794834 3.435112 1.670223
v -1.794834 4.180189 1.670223
v -1.840446 3.435112 1.500000
v -1.840446 4.180189 1.500000
v -1.794835 3.435112 1.329777
v -1.794835 4.180189 1.329777
v -1.670223 3.435112 1.205165
v -1.670223 4.180189 1.205165
v -1.500000 4.238677 1.202394
v -1.351197 4.238677 1.242266
v -1.242266 4.238677 1.351197
v -1.202394 4.238677 1.500000
v -1.242266 4.238677 1.648803
v -1.351197 4.238677 1.757734
v -1.500000 4.238677 1.797606
v -1.648803 4.238677 1.757734
v -1.757734 4.238677 1.648803
v -1.797606 4.238677 1.500000
v -1.757734 4.238677 1.351197
v -1.648803 4.238677 1.242266
v -1.500000 3.355109 1.188272
v -1.344136 3.355109 1.230036
v -1.230036 3.355109 1.344136
v -1.188272 3.355109 1.500000
v -1.230036 3.355109 1.655864
v -1.344136 3.355109 1.769964
v -1.500000 3.355109 1.811728
v -1.655864 3.355110 1.769964
v -1.769964 3.355109 1.655864
v -1.811728 3.355109 1.500000
v -1.769964 3.355109 1.344136
v -1.655864 3.355110 1.230036
v -1.500000 4.238677 1.202394
v -1.351197 4.238677 1.242266
v -1.242266 4.238677 1.351197
v -1.202394 4.238677 1.500000
v -1.242266 4.238677 1.648803
v -1.351197 4.238677 1.757734
v -1.500000 4.238677 1.797606
v -1.648803 4.238677 1.757734
v -1.757734 4.238677 1.648803
v -1.797606 4.238677 1.500000
v -1.757734 4.238677 1.351197
v -1.648803 4.238677 1.242266
v -1.500000 4.308328 1.202394
v -1.351197 4.308328 1.242266
v -1.242266 4.308328 1.351197
v -1.202394 4.308328 1.500000
v -1.242266 4.308328 1.648803
v -1.351197 4.308328 1.757734
v -1.500000 4.308328 1.797606
v -1.648803 4.308328 1.757734
v -1.757734 4.308328 1.648803
v -1.797606 4.308328 1.500000
v -1.757734 4.308328 1.351197
v -1.648803 4.308328 1.242266
v -1.229005 4.294081 1.656459
v -1.229005 4.252924 1.656459
v -1.343541 4.252924 1.770995
v -1.343541 4.294081 1.770995
v -1.812917 4.294081 1.500000
v -1.812917 4.252924 1.500000
v -1.770995 4.252924 1.343541
v -1.770995 4.294081 1.343541
v -1.229005 4.294081 1.343541
v -1.229005 4.252924 1.343541
v -1.187082 4.252924 1.500000
v -1.187082 4.294081 1.500000
v -1.656459 4.294081 1.770995
v -1.656459 4.252924 1.770995
v -1.770994 4.252924 1.656459
v -1.770995 4.294081 1.656459
v -1.500000 4.294081 1.187082
v -1.500000 4.252924 1.187082
v -1.343541 4.252924 1.229005
v -1.343541 4.294081 1.229005
v -1.500000 4.252924 1.812918
v -1.500000 4.294081 1.812918
v -1.656459 4.252924 1.229005
v -1.656459 4.294081 1.229005
v -1.500000 3.355109 1.188272
v -1.344136 3.355109 1.230036
v -1.230036 3.355109 1.344136
v -1.188272 3.355109 1.500000
v -1.230036 3.355109 1.655864
v -1.344136 3.355109 1.769964
v -1.500000 3.355109 1.811728
v -1.655864 3.355110 1.769964
v -1.769964 3.355109 1.655864
v -1.811728 3.355109 1.500000
v -1.769964 3.355109 1.344136
v -1.655864 3.355110 1.230036
v -1.500000 3.293341 1.188272
v -1.344136 3.293341 1.230036
v -1.230036 3.293341 1.344136
v -1.188272 3.293341 1.500000
v -1.230036 3.293341 1.655864
v -1.344136 3.293341 1.769964
v -1.500000 3.293341 1.811728
v -1.655864 3.293341 1.769964
v -1.769964 3.293341 1.655864
v -1.811728 3.293341 1.500000
v -1.769964 3.293341 1.344136
v -1.655864 3.293341 1.230036
v -1.662143 3.308992 1.219161
v -1.662143 3.339458 1.219161
v -1.780839 3.339458 1.337858
v -1.780839 3.308992 1.337858
v -1.219161 3.308992 1.662142
v -1.219161 3.339458 1.662142
v -1.175715 3.339459 1.500000
v -1.175715 3.308992 1.500000
v -1.824285 3.308992 1.500000
v -1.824285 3.339458 1.500000
v -1.780839 3.339458 1.662143
v -1.780839 3.308992 1.662143
v -1.219161 3.308992 1.337857
v -1.219161 3.339458 1.337857
v -1.337857 3.339458 1.219161
v -1.337857 3.308992 1.219161
v -1.662142 3.308992 1.780839
v -1.662142 3.339459 1.780839
v -1.500000 3.339459 1.824285
v -1.500000 3.308992 1.824285
v -1.500000 3.308992 1.175715
v -1.500000 3.339458 1.175715
v -1.337857 3.308992 1.780839
v -1.337857 3.339458 1.780839
vt 0.711001 0.046817
vt 0.663141 0.276007
vt 0.663141 0.046817
vt 0.615280 0.046817
vt 0.615280 0.276007
vt 0.567419 0.046817
vt 0.567419 0.276007
vt 0.519558 0.046817
vt 0.471698 0.276007
vt 0.471698 0.046817
vt 0.423837 0.046817
vt 0.423837 0.276007
vt 0.375976 0.046817
vt 0.375976 0.276007
vt 0.328115 0.046817
vt 0.328115 0.276007
vt 0.280254 0.046817
vt 0.280254 0.276007
vt 0.232394 0.046817
vt 0.328115 0.300259
vt 0.232394 0.276007
vt 0.184533 0.046817
vt 0.184533 0.276007
vt 0.136672 0.046817
vt 0.280254 0.019901
vt 0.519558 0.276007
vt 0.567419 0.300259
vt 0.519558 0.300259
vt 0.280254 0.300259
vt 0.471698 0.300259
vt 0.232394 0.300259
vt 0.423837 0.300259
vt 0.663141 0.300259
vt 0.615280 0.300259
vt 0.184533 0.300259
vt 0.375976 0.300259
vt 0.136672 0.276007
vt 0.136672 0.300259
vt 0.711001 0.276007
vt 0.471698 0.019901
vt 0.615280 0.019901
vt 0.663141 0.019901
vt 0.232394 0.019901
vt 0.375976 0.019901
vt 0.423837 0.019901
vt 0.184533 0.019901
vt 0.711001 0.019901
vt 0.519558 0.019901
vt 0.567419 0.019901
vt 0.328115 0.019901
vt 0.549865 0.417194
vt 0.542503 0.477706
vt 0.549966 0.479741
vt 0.342105 0.423836
vt 0.458088 0.539298
vt 0.499500 0.381694
vt 0.316682 0.479232
vt 0.353854 0.527700
vt 0.324154 0.477232
vt 0.464389 0.331670
vt 0.513038 0.368455
vt 0.518546 0.363016
vt 0.464659 0.565088
vt 0.404285 0.557356
vt 0.402190 0.564798
vt 0.347678 0.362663
vt 0.403793 0.339017
vt 0.401854 0.331530
vt 0.362840 0.519021
vt 0.342428 0.472426
vt 0.336229 0.474145
vt 0.504051 0.377128
vt 0.457194 0.357347
vt 0.513348 0.528407
vt 0.518784 0.533905
vt 0.323908 0.418785
vt 0.316449 0.416753
vt 0.542380 0.419161
vt 0.348363 0.533126
vt 0.462328 0.339129
vt 0.361750 0.377144
vt 0.408441 0.357346
vt 0.406780 0.351127
vt 0.459746 0.545506
vt 0.409505 0.539201
vt 0.407804 0.545404
vt 0.353104 0.368168
vt 0.462725 0.557604
vt 0.335892 0.422197
vt 0.366298 0.381688
vt 0.504687 0.519443
vt 0.458863 0.351123
vt 0.367396 0.514448
vt 0.530269 0.422197
vt 0.524049 0.423886
vt 0.524280 0.472646
vt 0.500128 0.514909
vt 0.530504 0.474288
vt 0.188894 0.333167
vt 0.128831 0.339338
vt 0.127039 0.332722
vt 0.183659 0.544225
vt 0.089850 0.517722
vt 0.132742 0.353758
vt 0.189405 0.565265
vt 0.238045 0.529491
vt 0.242944 0.534296
vt 0.043419 0.479355
vt 0.049748 0.419047
vt 0.050040 0.477522
vt 0.273399 0.418442
vt 0.237488 0.369517
vt 0.242340 0.364647
vt 0.127555 0.564898
vt 0.079208 0.528323
vt 0.129356 0.558273
vt 0.078439 0.368378
vt 0.073541 0.363586
vt 0.273673 0.480508
vt 0.267016 0.478806
vt 0.231591 0.523229
vt 0.227345 0.519023
vt 0.058483 0.421203
vt 0.064513 0.473492
vt 0.058719 0.475067
vt 0.258086 0.422743
vt 0.226883 0.380171
vt 0.231149 0.375941
vt 0.085568 0.521930
vt 0.133277 0.543830
vt 0.131673 0.549585
vt 0.185196 0.549991
vt 0.183199 0.354263
vt 0.184798 0.348496
vt 0.252474 0.475111
vt 0.252290 0.424320
vt 0.089127 0.378808
vt 0.064278 0.422694
vt 0.266770 0.420281
vt 0.043101 0.417366
vt 0.187602 0.558648
vt 0.187104 0.339796
vt 0.074343 0.533167
vt 0.258273 0.476623
vt 0.084888 0.374618
vt 0.131219 0.347993
vt 0.711001 0.300259
vt 0.136672 0.019901
vn 0.0000 -0.1669 -0.9860
vn 0.4775 0.2967 -0.8270
vn 0.4930 -0.1669 -0.8539
vn 0.8539 -0.1669 -0.4930
vn 0.8270 0.2967 -0.4775
vn 0.9860 -0.1669 0.0000
vn 0.9550 0.2967 0.0000
vn 0.8539 -0.1669 0.4930
vn 0.4775 0.2967 0.8270
vn 0.4930 -0.1669 0.8539
vn 0.0000 -0.1669 0.9860
vn 0.0000 0.2967 0.9550
vn -0.4930 -0.1669 0.8539
vn -0.4775 0.2967 0.8270
vn -0.8539 -0.1669 0.4930
vn -0.8270 0.2967 0.4775
vn -0.9860 -0.1669 0.0000
vn -0.9550 0.2967 0.0000
vn -0.8539 -0.1669 -0.4930
vn -0.6987 0.5909 0.4034
vn -0.8270 0.2967 -0.4775
vn -0.4930 -0.1669 -0.8539
vn -0.4775 0.2967 -0.8270
vn -0.9412 -0.3378 0.0000
vn 0.8270 0.2967 0.4775
vn 0.8067 0.5909 0.0000
vn 0.6987 0.5909 0.4034
vn -0.8067 0.5909 0.0000
vn 0.4034 0.5909 0.6987
vn -0.6986 0.5909 -0.4034
vn 0.0000 0.5909 0.8067
vn 0.4034 0.5909 -0.6986
vn 0.6986 0.5909 -0.4034
vn -0.4034 0.5909 -0.6987
vn -0.4034 0.5909 0.6987
vn 0.0000 0.2967 -0.9550
vn 0.0000 0.5909 -0.8067
vn 0.4706 -0.3378 0.8151
vn 0.8151 -0.3378 -0.4706
vn 0.4706 -0.3378 -0.8151
vn -0.8151 -0.3378 -0.4706
vn -0.4706 -0.3378 0.8151
vn 0.0000 -0.3378 0.9412
vn -0.4706 -0.3378 -0.8151
vn 0.0000 -0.3378 -0.9412
vn 0.8151 -0.3378 0.4706
vn 0.9412 -0.3378 0.0000
vn -0.8151 -0.3378 0.4706
vn 0.6812 -0.7321 0.0000
vn 0.8021 -0.3770 0.4631
vn 0.5899 -0.7321 0.3406
vn -0.3605 0.9092 -0.2082
vn 0.0000 0.9092 0.4163
vn 0.3605 0.9092 -0.2082
vn -0.6812 -0.7321 0.0000
vn -0.8021 -0.3770 0.4631
vn -0.9262 -0.3770 0.0000
vn 0.3406 -0.7321 -0.5899
vn 0.8021 -0.3770 -0.4631
vn 0.5899 -0.7321 -0.3406
vn 0.0000 -0.7321 0.6812
vn -0.4631 -0.3770 0.8021
vn -0.3406 -0.7321 0.5899
vn -0.3406 -0.7321 -0.5899
vn 0.0000 -0.3770 -0.9262
vn 0.0000 -0.7321 -0.6812
vn -0.8021 0.3770 0.4631
vn -0.4163 0.9092 0.0000
vn -0.9262 0.3770 0.0000
vn 0.8021 0.3770 -0.4631
vn 0.2082 0.9092 -0.3605
vn 0.4631 -0.3770 0.8021
vn 0.3406 -0.7321 0.5899
vn -0.8021 -0.3770 -0.4631
vn -0.5899 -0.7321 -0.3406
vn 0.9262 -0.3770 0.0000
vn -0.5899 -0.7321 0.3406
vn 0.4631 -0.3770 -0.8021
vn -0.4631 0.3770 -0.8021
vn 0.0000 0.9092 -0.4163
vn 0.0000 0.3770 -0.9262
vn 0.0000 0.3770 0.9262
vn -0.2082 0.9092 0.3606
vn -0.4631 0.3770 0.8021
vn -0.4631 -0.3770 -0.8021
vn 0.0000 -0.3770 0.9262
vn -0.8021 0.3770 -0.4631
vn -0.2082 0.9092 -0.3605
vn 0.4631 0.3770 0.8021
vn 0.4631 0.3770 -0.8021
vn -0.3606 0.9092 0.2082
vn 0.9262 0.3770 0.0000
vn 0.4163 0.9092 0.0000
vn 0.3605 0.9092 0.2082
vn 0.2082 0.9092 0.3606
vn 0.8021 0.3770 0.4631
vn 0.0000 0.6258 -0.7800
vn -0.4744 0.3157 -0.8217
vn -0.3900 0.6258 -0.6755
vn 0.2437 -0.8732 0.4221
vn -0.2437 -0.8731 0.4221
vn -0.2437 -0.8732 -0.4221
vn 0.3900 0.6258 0.6755
vn 0.8217 0.3157 0.4744
vn 0.6755 0.6258 0.3900
vn -0.6755 0.6258 0.3900
vn -0.9489 0.3157 0.0000
vn -0.8217 0.3157 0.4744
vn 0.6755 0.6258 -0.3900
vn 0.4744 0.3157 -0.8217
vn 0.3900 0.6258 -0.6755
vn 0.0000 0.6258 0.7800
vn -0.4744 0.3157 0.8217
vn 0.0000 0.3157 0.9489
vn -0.8217 0.3157 -0.4744
vn -0.6755 0.6258 -0.3900
vn 0.7800 0.6258 0.0000
vn 0.9489 0.3157 0.0000
vn 0.8217 -0.3157 0.4744
vn 0.4221 -0.8732 0.2437
vn -0.9489 -0.3157 0.0000
vn -0.4221 -0.8732 0.2437
vn -0.8217 -0.3157 0.4744
vn 0.8217 -0.3157 -0.4744
vn 0.2437 -0.8732 -0.4221
vn 0.4744 -0.3157 -0.8217
vn -0.4744 -0.3157 0.8217
vn 0.0000 -0.8732 0.4874
vn 0.0000 -0.3157 0.9489
vn 0.4744 -0.3157 0.8217
vn 0.0000 -0.8731 -0.4874
vn 0.0000 -0.3157 -0.9489
vn 0.4874 -0.8732 0.0000
vn 0.4221 -0.8732 -0.2437
vn -0.4221 -0.8732 -0.2437
vn -0.4874 -0.8732 0.0000
vn 0.8217 0.3157 -0.4744
vn -0.7800 0.6258 0.0000
vn 0.4744 0.3157 0.8217
vn 0.0000 0.3157 -0.9489
vn -0.3900 0.6258 0.6755
vn 0.9489 -0.3157 0.0000
vn -0.8217 -0.3157 -0.4744
vn -0.4744 -0.3157 -0.8217
usemtl None
s 1
f 1/1/1 4/2/2 3/3/3
f 4/2/2 5/4/4 3/3/3
f 6/5/5 7/6/6 5/4/4
f 8/7/7 9/8/8 7/6/6
f 9/8/8 12/9/9 11/10/10
f 12/9/9 13/11/11 11/10/10
f 14/12/12 15/13/13 13/11/11
f 16/14/14 17/15/15 15/13/13
f 18/16/16 19/17/17 17/15/15
f 20/18/18 21/19/19 19/17/17
f 16/14/14 33/20/20 18/16/16
f 22/21/21 23/22/22 21/19/19
f 24/23/23 1/24/1 23/22/22
f 21/19/19 46/25/24 19/17/17
f 10/26/25 28/27/26 29/28/27
f 18/16/16 34/29/28 20/18/18
f 12/9/9 29/28/27 30/30/29
f 20/18/18 35/31/30 22/21/21
f 14/12/12 30/30/29 31/32/31
f 6/5/5 26/33/32 27/34/33
f 24/23/23 35/31/30 36/35/34
f 14/12/12 32/36/35 16/14/14
f 6/5/5 28/27/26 8/7/7
f 2/37/36 36/35/34 25/38/37
f 2/39/36 26/33/32 4/2/2
f 13/11/11 42/40/38 11/10/10
f 3/3/3 39/41/39 38/42/40
f 23/22/22 47/43/41 21/19/19
f 13/11/11 44/44/42 43/45/43
f 7/6/6 39/41/39 5/4/4
f 1/24/1 48/46/44 23/22/22
f 1/1/1 38/42/40 37/47/45
f 17/15/15 44/44/42 15/13/13
f 7/6/6 41/48/46 40/49/47
f 19/17/17 45/50/48 17/15/15
f 11/10/10 41/48/46 9/8/8
f 52/51/49 74/52/50 53/53/51
f 71/54/52 67/55/53 63/56/54
f 58/57/55 87/58/56 78/59/57
f 50/60/58 82/61/59 51/62/60
f 55/63/61 86/64/62 56/65/63
f 60/66/64 90/67/65 49/68/66
f 88/69/67 70/70/68 77/71/69
f 81/72/70 62/73/71 63/56/54
f 53/53/51 75/74/72 54/75/73
f 58/57/55 79/76/74 59/77/75
f 51/62/60 83/78/76 52/51/49
f 56/65/63 87/58/56 57/79/77
f 49/68/66 91/80/78 50/60/58
f 96/81/79 61/82/80 89/83/81
f 94/84/82 68/85/83 85/86/84
f 60/66/64 79/76/74 95/87/85
f 55/63/61 75/74/72 93/88/86
f 80/89/87 72/90/88 96/81/79
f 76/91/89 67/55/53 94/84/82
f 92/92/90 61/82/80 62/73/71
f 88/69/67 68/85/83 69/93/91
f 84/94/92 63/56/54 64/95/93
f 77/71/69 71/54/52 80/89/87
f 76/91/89 65/96/94 66/97/95
f 89/83/81 95/87/85 96/81/79
f 85/86/84 93/88/86 94/84/82
f 81/72/70 91/80/78 92/92/90
f 88/69/67 78/59/57 87/58/56
f 73/98/96 83/78/76 84/94/92
f 96/81/79 79/76/74 80/89/87
f 94/84/82 75/74/72 76/91/89
f 89/83/81 91/80/78 90/67/65
f 85/86/84 87/58/56 86/64/62
f 84/94/92 82/61/59 81/72/70
f 80/89/87 78/59/57 77/71/69
f 76/91/89 74/52/50 73/98/96
f 73/98/96 64/95/93 65/96/94
f 97/99/97 122/100/98 108/101/99
f 114/102/100 116/103/101 120/104/102
f 102/105/103 126/106/104 101/107/105
f 105/108/106 130/109/107 131/110/108
f 99/111/109 135/112/110 98/113/111
f 103/114/112 138/115/113 139/116/114
f 108/101/99 123/117/115 107/118/116
f 100/119/117 126/106/104 127/120/118
f 125/121/119 114/102/100 113/122/120
f 129/123/121 117/124/122 132/125/123
f 133/126/124 110/127/125 136/128/126
f 137/129/127 115/130/128 140/131/129
f 140/131/129 114/102/100 143/132/130
f 136/128/126 109/133/131 141/134/132
f 132/125/123 116/103/101 137/129/127
f 133/126/124 112/135/133 111/136/134
f 129/123/121 119/137/135 118/138/136
f 99/111/109 127/120/118 134/139/137
f 107/118/116 130/109/107 106/140/138
f 102/105/103 139/116/114 144/141/139
f 98/113/111 142/142/140 97/99/97
f 105/108/106 138/115/113 104/143/141
f 128/144/142 113/122/120 112/135/133
f 124/145/143 120/104/102 119/137/135
f 140/131/129 144/141/139 139/116/114
f 136/128/126 142/142/140 135/112/110
f 137/129/127 131/110/108 132/125/123
f 128/144/142 134/139/137 127/120/118
f 129/123/121 123/117/115 124/145/143
f 125/121/119 144/141/139 143/132/130
f 121/146/144 142/142/140 141/134/132
f 140/131/129 138/115/113 137/129/127
f 136/128/126 134/139/137 133/126/124
f 132/125/123 130/109/107 129/123/121
f 128/144/142 126/106/104 125/121/119
f 124/145/143 122/100/98 121/146/144
f 121/146/144 109/133/131 120/104/102
f 1/1/1 2/39/36 4/2/2
f 4/2/2 6/5/5 5/4/4
f 6/5/5 8/7/7 7/6/6
f 8/7/7 10/26/25 9/8/8
f 9/8/8 10/26/25 12/9/9
f 12/9/9 14/12/12 13/11/11
f 14/12/12 16/14/14 15/13/13
f 16/14/14 18/16/16 17/15/15
f 18/16/16 20/18/18 19/17/17
f 20/18/18 22/21/21 21/19/19
f 16/14/14 32/36/35 33/20/20
f 22/21/21 24/23/23 23/22/22
f 24/23/23 2/37/36 1/24/1
f 21/19/19 47/43/41 46/25/24
f 10/26/25 8/7/7 28/27/26
f 18/16/16 33/20/20 34/29/28
f 12/9/9 10/26/25 29/28/27
f 20/18/18 34/29/28 35/31/30
f 14/12/12 12/9/9 30/30/29
f 6/5/5 4/2/2 26/33/32
f 24/23/23 22/21/21 35/31/30
f 14/12/12 31/32/31 32/36/35
f 6/5/5 27/34/33 28/27/26
f 2/37/36 24/23/23 36/35/34
f 2/39/36 25/147/37 26/33/32
f 13/11/11 43/45/43 42/40/38
f 3/3/3 5/4/4 39/41/39
f 23/22/22 48/46/44 47/43/41
f 13/11/11 15/13/13 44/44/42
f 7/6/6 40/49/47 39/41/39
f 1/24/1 37/148/45 48/46/44
f 1/1/1 3/3/3 38/42/40
f 17/15/15 45/50/48 44/44/42
f 7/6/6 9/8/8 41/48/46
f 19/17/17 46/25/24 45/50/48
f 11/10/10 42/40/38 41/48/46
f 52/51/49 83/78/76 74/52/50
f 63/56/54 62/73/71 71/54/52
f 61/82/80 72/90/88 71/54/52
f 71/54/52 70/70/68 69/93/91
f 69/93/91 68/85/83 71/54/52
f 67/55/53 66/97/95 65/96/94
f 65/96/94 64/95/93 63/56/54
f 62/73/71 61/82/80 71/54/52
f 71/54/52 68/85/83 67/55/53
f 67/55/53 65/96/94 63/56/54
f 58/57/55 57/79/77 87/58/56
f 50/60/58 91/80/78 82/61/59
f 55/63/61 93/88/86 86/64/62
f 60/66/64 95/87/85 90/67/65
f 88/69/67 69/93/91 70/70/68
f 81/72/70 92/92/90 62/73/71
f 53/53/51 74/52/50 75/74/72
f 58/57/55 78/59/57 79/76/74
f 51/62/60 82/61/59 83/78/76
f 56/65/63 86/64/62 87/58/56
f 49/68/66 90/67/65 91/80/78
f 96/81/79 72/90/88 61/82/80
f 94/84/82 67/55/53 68/85/83
f 60/66/64 59/77/75 79/76/74
f 55/63/61 54/75/73 75/74/72
f 80/89/87 71/54/52 72/90/88
f 76/91/89 66/97/95 67/55/53
f 92/92/90 89/83/81 61/82/80
f 88/69/67 85/86/84 68/85/83
f 84/94/92 81/72/70 63/56/54
f 77/71/69 70/70/68 71/54/52
f 76/91/89 73/98/96 65/96/94
f 89/83/81 90/67/65 95/87/85
f 85/86/84 86/64/62 93/88/86
f 81/72/70 82/61/59 91/80/78
f 88/69/67 77/71/69 78/59/57
f 73/98/96 74/52/50 83/78/76
f 96/81/79 95/87/85 79/76/74
f 94/84/82 93/88/86 75/74/72
f 89/83/81 92/92/90 91/80/78
f 85/86/84 88/69/67 87/58/56
f 84/94/92 83/78/76 82/61/59
f 80/89/87 79/76/74 78/59/57
f 76/91/89 75/74/72 74/52/50
f 73/98/96 84/94/92 64/95/93
f 97/99/97 142/142/140 122/100/98
f 120/104/102 109/133/131 110/127/125
f 110/127/125 111/136/134 120/104/102
f 112/135/133 113/122/120 114/102/100
f 114/102/100 115/130/128 116/103/101
f 116/103/101 117/124/122 118/138/136
f 118/138/136 119/137/135 120/104/102
f 120/104/102 111/136/134 112/135/133
f 112/135/133 114/102/100 120/104/102
f 116/103/101 118/138/136 120/104/102
f 102/105/103 144/141/139 126/106/104
f 105/108/106 106/140/138 130/109/107
f 99/111/109 134/139/137 135/112/110
f 103/114/112 104/143/141 138/115/113
f 108/101/99 122/100/98 123/117/115
f 100/119/117 101/107/105 126/106/104
f 125/121/119 143/132/130 114/102/100
f 129/123/121 118/138/136 117/124/122
f 133/126/124 111/136/134 110/127/125
f 137/129/127 116/103/101 115/130/128
f 140/131/129 115/130/128 114/102/100
f 136/128/126 110/127/125 109/133/131
f 132/125/123 117/124/122 116/103/101
f 133/126/124 128/144/142 112/135/133
f 129/123/121 124/145/143 119/137/135
f 99/111/109 100/119/117 127/120/118
f 107/118/116 123/117/115 130/109/107
f 102/105/103 103/114/112 139/116/114
f 98/113/111 135/112/110 142/142/140
f 105/108/106 131/110/108 138/115/113
f 128/144/142 125/121/119 113/122/120
f 124/145/143 121/146/144 120/104/102
f 140/131/129 143/132/130 144/141/139
f 136/128/126 141/134/132 142/142/140
f 137/129/127 138/115/113 131/110/108
f 128/144/142 133/126/124 134/139/137
f 129/123/121 130/109/107 123/117/115
f 125/121/119 126/106/104 144/141/139
f 121/146/144 122/100/98 142/142/140
f 140/131/129 139/116/114 138/115/113
f 136/128/126 135/112/110 134/139/137
f 132/125/123 131/110/108 130/109/107
f 128/144/142 127/120/118 126/106/104
f 124/145/143 123/117/115 122/100/98
f 121/146/144 141/134/132 109/133/131
