mtllib lampshade.mtl
v 0 4.313044 -0.704555
v 0 5.863702 -0.564427
v 0.299766 4.323108 -0.645783
v 0.163126 5.869178 -0.532445
v 0.553895 4.351768 -0.478416
v 0.301417 5.884775 -0.441367
v 0.723698 4.394662 -0.227933
v 0.393821 5.908116 -0.30506
v 0.783325 4.445259 0.067532
v 0.426269 5.93565 -0.144274
v 0.723698 4.495855 0.362997
v 0.393821 5.963183 0.016511
v 0.553895 4.538748 0.613479
v 0.301417 5.986525 0.152819
v 0.299766 4.567409 0.780847
v 0.163126 6.002121 0.243896
v 0 4.577473 0.839618
v 0 6.007598 0.275878
v -0.299765 4.567409 0.780847
v -0.163126 6.002121 0.243896
v -0.553895 4.538748 0.61348
v -0.301417 5.986525 0.152819
v -0.723698 4.495855 0.362997
v -0.393821 5.963183 0.016511
v -0.783325 4.445258 0.067532
v -0.426269 5.93565 -0.144274
v -0.723698 4.394662 -0.227933
v -0.393821 5.908116 -0.30506
v -0.553894 4.351768 -0.478416
v -0.301417 5.884775 -0.441367
v -0.299765 4.323108 -0.645783
v -0.163126 5.869178 -0.532445
v 0 4.309175 -0.66173
v 0 5.859833 -0.521602
v 0.283903 4.318793 -0.60605
v 0.147162 5.864858 -0.492754
v 0.524518 4.346184 -0.447516
v 0.271897 5.879169 -0.410609
v 0.685192 4.387167 -0.210328
v 0.35521 5.900587 -0.287696
v 0.741489 4.435494 0.069344
v 0.38443 5.925845 -0.142747
v 0.684904 4.483805 0.348898
v 0.355128 5.951099 0.002168
v 0.524113 4.524749 0.585803
v 0.271781 5.972507 0.124998
v 0.283617 4.552101 0.744053
v 0.147079 5.986808 0.20706
v 0 4.561706 0.799615
v 0 5.991831 0.235875
v -0.283616 4.552101 0.744053
v -0.147079 5.986808 0.20706
v -0.524113 4.524749 0.585803
v -0.27178 5.972507 0.124998
v -0.684904 4.483805 0.348898
v -0.355128 5.951099 0.002168
v -0.741489 4.435494 0.069344
v -0.38443 5.925845 -0.142747
v -0.685191 4.387167 -0.210328
v -0.35521 5.900587 -0.287696
v -0.524517 4.346184 -0.447517
v -0.271897 5.879169 -0.410609
v -0.283902 4.318793 -0.606051
v -0.147162 5.864858 -0.492754
vn 0 0.7201 -0.6939
vn 0.3373 -0.5998 -0.7256
vn 0 -0.6096 -0.7927
vn 0.2164 0.726 -0.6527
vn 0.6218 -0.5719 -0.5351
vn 0.403 0.743 -0.5343
vn 0.8096 -0.5304 -0.2514
vn 0.5324 0.7691 -0.3535
vn 0.8725 -0.482 0.0805
vn 0.5835 0.8008 -0.1352
vn 0.8024 -0.4341 0.4095
vn 0.5456 0.8333 0.0886
vn 0.6116 -0.394 0.686
vn 0.4218 0.8616 0.2824
vn 0.33 -0.3675 0.8695
vn 0.2297 0.8808 0.414
vn 0 -0.3582 0.9336
vn -0.2297 0.8808 0.414
vn -0.33 -0.3675 0.8695
vn -0.4218 0.8616 0.2824
vn -0.6116 -0.394 0.686
vn -0.5456 0.8333 0.0886
vn -0.8024 -0.4341 0.4095
vn -0.5835 0.8008 -0.1352
vn -0.8725 -0.482 0.0805
vn -0.5324 0.7691 -0.3535
vn -0.8096 -0.5304 -0.2514
vn -0.403 0.743 -0.5343
vn -0.6218 -0.5719 -0.5351
vn -0.2164 0.726 -0.6527
vn -0.3373 -0.5998 -0.7256
vn -0.1644 -0.8216 0.5458
vn 0 0.6778 0.7353
vn 0 -0.8173 0.5761
vn -0.3079 -0.834 0.4578
vn -0.322 0.6684 0.6704
vn -0.4105 -0.8533 0.3214
vn -0.5919 0.6423 0.487
vn -0.4549 -0.8773 0.153
vn -0.7675 0.6037 0.2156
vn -0.4302 -0.9024 -0.0233
vn -0.8231 0.5591 -0.0991
vn -0.3356 -0.9248 -0.1792
vn -0.7534 0.5155 -0.4082
vn -0.184 -0.9402 -0.2865
vn -0.5719 0.4794 -0.6656
vn 0 -0.9457 -0.3249
vn -0.3079 0.4556 -0.8352
vn 0.3079 0.4556 -0.8352
vn 0.184 -0.9402 -0.2865
vn 0.572 0.4794 -0.6656
vn 0.3356 -0.9248 -0.1792
vn 0.7534 0.5155 -0.4082
vn 0.4302 -0.9024 -0.0233
vn 0.8231 0.5591 -0.0991
vn 0.4549 -0.8773 0.153
vn 0.7675 0.6037 0.2156
vn 0.4105 -0.8533 0.3214
vn 0.5919 0.6422 0.487
vn 0.3079 -0.834 0.4578
vn 0.322 0.6684 0.6704
vn 0.1644 -0.8216 0.5458
vn 0 0.4474 -0.8943
vn 0 0.8876 0.4605
vt 0.278768 0.762486
vt 0.568398 0.93026
vt 0.527956 0.981267
vt 0.300776 0.73473
vt 0.603575 0.875489
vt 0.319918 0.704924
vt 0.633265 0.81756
vt 0.336075 0.673401
vt 0.657385 0.7571
vt 0.3492 0.640499
vt 0.675967 0.694715
vt 0.359312 0.60655
vt 0.68911 0.630961
vt 0.366465 0.571857
vt 0.696933 0.566339
vt 0.370722 0.536691
vt 0.69953 0.501296
vt 0.370722 0.465901
vt 0.696933 0.436254
vt 0.366465 0.430735
vt 0.68911 0.371631
vt 0.359312 0.396041
vt 0.675967 0.307877
vt 0.3492 0.362093
vt 0.657385 0.245492
vt 0.336075 0.329191
vt 0.633265 0.185032
vt 0.319918 0.297668
vt 0.603575 0.127103
vt 0.300776 0.267863
vt 0.568398 0.072331
vt 0.278768 0.240106
vt 0.527956 0.021325
vt 0.372135 0.501296
o Cylinder.001_Cylinder.003
usemtl Material
s 1
f 2/1/1 3/2/2 1/3/3
f 4/4/4 5/5/5 3/2/2
f 6/6/6 7/7/7 5/5/5
f 8/8/8 9/9/9 7/7/7
f 10/10/10 11/11/11 9/9/9
f 12/12/12 13/13/13 11/11/11
f 14/14/14 15/15/15 13/13/13
f 16/16/16 17/17/17 15/15/15
f 17/17/17 20/18/18 19/19/19
f 19/19/19 22/20/20 21/21/21
f 21/21/21 24/22/22 23/23/23
f 23/23/23 26/24/24 25/25/25
f 25/25/25 28/26/26 27/27/27
f 27/27/27 30/28/28 29/29/29
f 29/29/29 32/30/30 31/31/31
f 31/31/31 2/32/1 1/33/3
f 35/2/32 34/1/33 33/3/34
f 37/5/35 36/4/36 35/2/32
f 39/7/37 38/6/38 37/5/35
f 41/9/39 40/8/40 39/7/37
f 43/11/41 42/10/42 41/9/39
f 45/13/43 44/12/44 43/11/41
f 47/15/45 46/14/46 45/13/43
f 49/17/47 48/16/48 47/15/45
f 52/18/49 49/17/47 51/19/50
f 54/20/51 51/19/50 53/21/52
f 56/22/53 53/21/52 55/23/54
f 58/24/55 55/23/54 57/25/56
f 60/26/57 57/25/56 59/27/58
f 62/28/59 59/27/58 61/29/60
f 64/30/61 61/29/60 63/31/62
f 34/32/33 63/31/62 33/33/34
f 3/2/2 33/3/34 1/3/3
f 2/1/1 36/4/36 4/4/4
f 5/5/5 35/2/32 3/2/2
f 4/4/4 38/6/38 6/6/6
f 7/7/7 37/5/35 5/5/5
f 6/6/6 40/8/40 8/8/8
f 9/9/9 39/7/37 7/7/7
f 8/8/8 42/10/42 10/10/10
f 11/11/11 41/9/39 9/9/9
f 10/10/10 44/12/44 12/12/12
f 13/13/13 43/11/41 11/11/11
f 12/12/12 46/14/46 14/14/14
f 15/15/15 45/13/43 13/13/13
f 14/14/14 48/16/48 16/16/16
f 17/17/17 47/15/45 15/15/15
f 16/16/16 50/34/63 18/34/64
f 17/17/17 51/19/50 49/17/47
f 20/18/18 50/34/63 52/18/49
f 19/19/19 53/21/52 51/19/50
f 22/20/20 52/18/49 54/20/51
f 21/21/21 55/23/54 53/21/52
f 24/22/22 54/20/51 56/22/53
f 23/23/23 57/25/56 55/23/54
f 26/24/24 56/22/53 58/24/55
f 25/25/25 59/27/58 57/25/56
f 28/26/26 58/24/55 60/26/57
f 27/27/27 61/29/60 59/27/58
f 30/28/28 60/26/57 62/28/59
f 29/29/29 63/31/62 61/29/60
f 32/30/30 62/28/59 64/30/61
f 31/31/31 33/33/34 63/31/62
f 2/32/1 64/30/61 34/32/33
f 2/1/1 4/4/4 3/2/2
f 4/4/4 6/6/6 5/5/5
f 6/6/6 8/8/8 7/7/7
f 8/8/8 10/10/10 9/9/9
f 10/10/10 12/12/12 11/11/11
f 12/12/12 14/14/14 13/13/13
f 14/14/14 16/16/16 15/15/15
f 16/16/16 18/34/64 17/17/17
f 17/17/17 18/34/64 20/18/18
f 19/19/19 20/18/18 22/20/20
f 21/21/21 22/20/20 24/22/22
f 23/23/23 24/22/22 26/24/24
f 25/25/25 26/24/24 28/26/26
f 27/27/27 28/26/26 30/28/28
f 29/29/29 30/28/28 32/30/30
f 31/31/31 32/30/30 2/32/1
f 35/2/32 36/4/36 34/1/33
f 37/5/35 38/6/38 36/4/36
f 39/7/37 40/8/40 38/6/38
f 41/9/39 42/10/42 40/8/40
f 43/11/41 44/12/44 42/10/42
f 45/13/43 46/14/46 44/12/44
f 47/15/45 48/16/48 46/14/46
f 49/17/47 50/34/63 48/16/48
f 52/18/49 50/34/63 49/17/47
f 54/20/51 52/18/49 51/19/50
f 56/22/53 54/20/51 53/21/52
f 58/24/55 56/22/53 55/23/54
f 60/26/57 58/24/55 57/25/56
f 62/28/59 60/26/57 59/27/58
f 64/30/61 62/28/59 61/29/60
f 34/32/33 64/30/61 63/31/62
f 3/2/2 35/2/32 33/3/34
f 2/1/1 34/1/33 36/4/36
f 5/5/5 37/5/35 35/2/32
f 4/4/4 36/4/36 38/6/38
f 7/7/7 39/7/37 37/5/35
f 6/6/6 38/6/38 40/8/40
f 9/9/9 41/9/39 39/7/37
f 8/8/8 40/8/40 42/10/42
f 11/11/11 43/11/41 41/9/39
f 10/10/10 42/10/42 44/12/44
f 13/13/13 45/13/43 43/11/41
f 12/12/12 44/12/44 46/14/46
f 15/15/15 47/15/45 45/13/43
f 14/14/14 46/14/46 48/16/48
f 17/17/17 49/17/47 47/15/45
f 16/16/16 48/16/48 50/34/63
f 17/17/17 19/19/19 51/19/50
f 20/18/18 18/34/64 50/34/63
f 19/19/19 21/21/21 53/21/52
f 22/20/20 20/18/18 52/18/49
f 21/21/21 23/23/23 55/23/54
f 24/22/22 22/20/20 54/20/51
f 23/23/23 25/25/25 57/25/56
f 26/24/24 24/22/22 56/22/53
f 25/25/25 27/27/27 59/27/58
f 28/26/26 26/24/24 58/24/55
f 27/27/27 29/29/29 61/29/60
f 30/28/28 28/26/26 60/26/57
f 29/29/29 31/31/31 63/31/62
f 32/30/30 30/28/28 62/28/59
f 31/31/31 1/33/3 33/33/34
f 2/32/1 32/30/30 64/30/61
