mtllib scripting book.mtl
v -2.087474 2.499319 1.794228
v -2.257241 4.35006 1.794228
v -2.087474 2.499319 1.446191
v -2.257241 4.35006 1.446191
v -0.731115 2.623736 1.794228
v -0.900881 4.474478 1.794228
v -0.731115 2.623736 1.446191
v -0.900881 4.474478 1.446191
v -2.133381 2.495108 1.504197
v -2.156693 2.49297 1.562203
v -2.16397 2.492302 1.62021
v -2.156693 2.49297 1.678216
v -2.133381 2.495108 1.736222
v -2.303148 4.34585 1.736222
v -2.326459 4.343711 1.678216
v -2.333736 4.343044 1.62021
v -2.326459 4.343711 1.562203
v -2.303148 4.34585 1.504197
v -0.731115 2.623736 1.736222
v -0.731115 2.623736 1.504197
v -0.900881 4.474478 1.504197
v -0.900881 4.474478 1.736222
v -2.029693 2.504619 1.446191
v -2.19946 4.355361 1.446191
v -2.029693 2.504619 1.794228
v -2.19946 4.355361 1.794228
v -2.243411 4.351329 1.504197
v -2.26573 4.349282 1.562203
v -2.272696 4.348643 1.62021
v -2.26573 4.349282 1.678216
v -2.243411 4.351329 1.736222
v -2.073645 2.500587 1.504197
v -2.095963 2.49854 1.562203
v -2.10293 2.497901 1.62021
v -2.095963 2.49854 1.678216
v -2.073645 2.500587 1.736222
v -0.760758 2.676852 1.73648
v -0.760758 2.676852 1.678344
v -0.784108 2.67471 1.62021
v -0.760758 2.676852 1.562075
v -0.760758 2.676852 1.50394
v -0.920367 4.416856 1.50394
v -0.920367 4.416856 1.562075
v -0.943717 4.414714 1.62021
v -0.920367 4.416856 1.678345
v -0.920367 4.416856 1.73648
v -2.232626 4.296484 1.50394
v -2.254442 4.294483 1.562075
v -2.261251 4.293859 1.62021
v -2.254442 4.294483 1.678344
v -2.232626 4.296484 1.73648
v -2.073017 2.556479 1.50394
v -2.094833 2.554478 1.562075
v -2.101642 2.553854 1.62021
v -2.094833 2.554478 1.678344
v -2.073017 2.556479 1.73648
vn -0.6956 0.6152 -0.3709
vn -0.2824 -0.6496 -0.7058
vn -0.5721 -0.7315 -0.3709
vn -0.0646 0.7042 -0.7071
vn 0.6277 -0.5222 -0.5773
vn 0.0646 -0.7041 -0.7071
vn 0.5218 0.6269 -0.5785
vn 0.6277 -0.5222 0.5773
vn 0.6272 -0.5214 -0.5785
vn -0.0646 0.7041 0.7071
vn -0.2824 -0.6496 0.7058
vn 0.0646 -0.7041 0.7071
vn 0.3689 -0.8412 -0.3953
vn 0.2097 0.8943 -0.3953
vn -0.3959 0.5874 0.7058
vn -0.3959 0.5874 -0.7058
vn 0.2097 0.8943 0.3953
vn 0.5448 0.8247 0.152
vn -0.7693 0.6115 -0.1847
vn 0.562 0.8271 0
vn -0.7693 0.6115 0.1847
vn 0.5448 0.8247 -0.152
vn -0.6956 0.6152 0.3709
vn 0.6272 -0.5214 0.5785
vn 0.3689 -0.8412 0.3953
vn 0.6857 -0.7118 -0.152
vn 0.7549 -0.6558 0
vn 0.7378 -0.6539 -0.1675
vn 0.6065 0.7772 0.1675
vn 0.3678 0.6543 0.6607
vn 0.4807 -0.5765 -0.6607
vn 0.623 0.7822 0
vn 0.5222 0.6277 -0.5773
vn 0.268 0.3262 -0.9065
vn 0.3678 0.6543 -0.6607
vn 0.3229 -0.272 -0.9065
vn 0.5218 0.6269 0.5785
vn 0.3229 -0.272 0.9065
vn -0.5721 -0.7315 0.3709
vn -0.6453 -0.7413 0.1847
vn -0.668 -0.7441 0
vn -0.7922 0.6102 0
vn -0.6453 -0.7413 -0.1847
vn 0.7031 -0.7111 0
vn 0.6857 -0.7118 0.152
vn 0.6065 0.7772 -0.1675
vn 0.7378 -0.6539 0.1675
vn 0.268 0.3262 0.9065
vn 0.4807 -0.5765 0.6607
vn 0.5222 0.6277 0.5773
vn 0.7895 -0.597 0.142
vn 0.6684 -0.7438 0
vn 0.7895 -0.597 -0.142
vn 0.6678 0.7307 0.142
vn 0.5219 0.853 0
vn 0.6678 0.7307 -0.142
vt 0.0804 0.9419
vt 0.0944 0.3761
vt 0.0804 0.3761
vt 0.1121 0.9419
vt 0.5091 0.3761
vt 0.1121 0.3761
vt 0.5091 0.9419
vt 0.0986 0.3761
vt 0.0986 0.9419
vt 0.0944 0.9419
vt 0.0918 0.9419
vt 0.0732 0.9419
vt 0.0897 0.9419
vt 0.0918 0.3761
vt 0.0916 0.393
vt 0.0937 0.393
vt 0.0937 0.9249
vt 0.1004 0.9249
vt 0.1004 0.393
vt 0.0916 0.9249
vt 0.5016 0.9249
vt 0.5016 0.393
vt 0.0732 0.3761
vt 0.071 0.3761
vt 0.071 0.9419
vt 0.0897 0.3761
vt 0.9443 0.9349
vt 0.564 0.3928
vt 0.9443 0.3928
vt 0.1276 0.2651
vt 0.8627 0.2326
vt 0.1154 0.2326
vt 0.8496 0.2002
vt 0.1116 0.2002
vt 0.1154 0.1678
vt 0.8627 0.1678
vt 0.1276 0.1354
vt 0.8627 0.2651
vt 0.8627 0.1354
vt 0.564 0.9349
o Cube.001
usemtl Material
s 1
f 18/1/1 3/2/2 9/3/3
f 24/4/4 7/5/5 23/6/6
f 22/7/7 5/5/8 19/5/9
f 26/4/10 1/2/11 25/6/12
f 19/5/9 25/6/12 36/8/13
f 31/9/14 2/10/15 26/4/10
f 4/10/16 27/9/17 24/4/4
f 18/1/1 28/11/18 27/9/17
f 17/12/19 29/13/20 28/11/18
f 29/13/20 15/12/21 30/11/22
f 30/11/22 14/1/23 31/9/14
f 23/6/6 20/5/24 32/8/25
f 35/14/26 54/15/27 55/16/28
f 27/9/17 48/17/29 47/18/30
f 36/8/13 55/16/28 56/19/31
f 28/11/18 49/20/32 48/17/29
f 8/7/33 20/5/24 7/5/5
f 31/9/14 46/21/34 51/18/35
f 36/8/13 37/22/36 19/5/9
f 30/11/22 49/20/32 29/13/20
f 21/7/37 41/22/38 20/5/24
f 2/10/15 13/3/39 1/2/11
f 14/1/23 12/23/40 13/3/39
f 15/12/21 11/24/41 12/23/40
f 16/25/42 10/23/43 11/24/41
f 17/12/19 9/3/3 10/23/43
f 35/14/26 13/3/39 12/23/40
f 34/26/44 12/23/40 11/24/41
f 10/23/43 34/26/44 11/24/41
f 9/3/3 33/14/45 10/23/43
f 3/2/2 32/8/25 9/3/3
f 31/9/14 50/17/46 30/11/22
f 32/8/25 53/16/47 33/14/45
f 27/9/17 42/21/48 21/7/37
f 32/8/25 41/22/38 52/19/49
f 24/4/4 21/7/37 8/7/33
f 22/7/7 26/4/10 6/7/50
f 36/8/13 1/2/11 13/3/39
f 6/27/50 25/28/12 5/29/8
f 4/10/16 23/6/6 3/2/2
f 52/30/49 40/31/51 53/32/47
f 53/32/47 39/33/52 54/34/27
f 39/33/52 55/35/28 54/34/27
f 38/36/53 56/37/31 55/35/28
f 42/38/48 40/31/51 41/38/38
f 43/31/54 39/33/52 40/31/51
f 44/33/55 38/36/53 39/33/52
f 45/36/56 37/39/36 38/36/53
f 45/36/56 51/37/35 46/39/34
f 44/33/55 50/35/46 45/36/56
f 48/32/29 44/33/55 43/31/54
f 47/30/30 43/31/54 42/38/48
f 33/14/45 54/15/27 34/26/44
f 19/5/9 46/21/34 22/7/7
f 18/1/1 4/10/16 3/2/2
f 24/4/4 8/7/33 7/5/5
f 22/7/7 6/7/50 5/5/8
f 26/4/10 2/10/15 1/2/11
f 19/5/9 5/5/8 25/6/12
f 31/9/14 14/1/23 2/10/15
f 4/10/16 18/1/1 27/9/17
f 18/1/1 17/12/19 28/11/18
f 17/12/19 16/25/42 29/13/20
f 29/13/20 16/25/42 15/12/21
f 30/11/22 15/12/21 14/1/23
f 23/6/6 7/5/5 20/5/24
f 35/14/26 34/26/44 54/15/27
f 27/9/17 28/11/18 48/17/29
f 36/8/13 35/14/26 55/16/28
f 28/11/18 29/13/20 49/20/32
f 8/7/33 21/7/37 20/5/24
f 31/9/14 22/7/7 46/21/34
f 36/8/13 56/19/31 37/22/36
f 30/11/22 50/17/46 49/20/32
f 21/7/37 42/21/48 41/22/38
f 2/10/15 14/1/23 13/3/39
f 14/1/23 15/12/21 12/23/40
f 15/12/21 16/25/42 11/24/41
f 16/25/42 17/12/19 10/23/43
f 17/12/19 18/1/1 9/3/3
f 35/14/26 36/8/13 13/3/39
f 34/26/44 35/14/26 12/23/40
f 10/23/43 33/14/45 34/26/44
f 9/3/3 32/8/25 33/14/45
f 3/2/2 23/6/6 32/8/25
f 31/9/14 51/18/35 50/17/46
f 32/8/25 52/19/49 53/16/47
f 27/9/17 47/18/30 42/21/48
f 32/8/25 20/5/24 41/22/38
f 24/4/4 27/9/17 21/7/37
f 22/7/7 31/9/14 26/4/10
f 36/8/13 25/6/12 1/2/11
f 6/27/50 26/40/10 25/28/12
f 4/10/16 24/4/4 23/6/6
f 52/30/49 41/38/38 40/31/51
f 53/32/47 40/31/51 39/33/52
f 39/33/52 38/36/53 55/35/28
f 38/36/53 37/39/36 56/37/31
f 42/38/48 43/31/54 40/31/51
f 43/31/54 44/33/55 39/33/52
f 44/33/55 45/36/56 38/36/53
f 45/36/56 46/39/34 37/39/36
f 45/36/56 50/35/46 51/37/35
f 44/33/55 49/34/32 50/35/46
f 48/32/29 49/34/32 44/33/55
f 47/30/30 48/32/29 43/31/54
f 33/14/45 53/16/47 54/15/27
f 19/5/9 37/22/36 46/21/34
