mtllib Cape New.mtl
v 0 2.42971 -1.071739
v 0.588183 3.750813 -0.866025
v 0.668828 2.42971 -0.928153
v -0.668828 2.42971 -0.928153
v 0 1.454077 -1.296919
v 1.018763 3.750813 -0.5
v -0.782494 1.454077 -1.123165
v 0.782493 1.454077 -1.123165
v 1.158444 2.42971 -0.53587
v -1.355319 1.454077 -0.648459
v -1.158444 2.42971 -0.535869
v 0 0.592268 -1.819583
v -0.872418 0.592268 -1.575805
v -1.511071 0.592268 -0.909791
v -1.018763 3.750813 -0.499999
v 0.872417 0.592268 -1.575805
v 1.355318 1.454077 -0.64846
v 1.337655 2.42971 0
v -1.744833 0.592268 1e-06
v -1.337655 2.42971 0
v 1.51107 0.592268 -0.909791
v 1.744833 0.592268 0
v 1.376179 0.592268 -0.807538
v 0.804729 0.592268 -1.403469
v 0.794537 0.592268 -1.411915
v 0 0.592268 -1.633132
v -0.794538 0.592268 -1.411914
v -1.365987 0.592268 -0.815983
v -1.376179 0.592268 -0.807537
v -1.583668 0.592268 1e-06
v -1.176366 3.750813 0
v 0 3.750813 -1
v 0 3.993014 -0.731844
v -0.365922 3.993014 -0.633795
v -0.588184 3.750813 -0.866025
v -0.633796 3.993014 -0.365922
v 0.365922 3.993014 -0.633795
v -0.731844 3.993014 0
v 0.633796 3.993014 -0.365922
v 1.176366 3.750813 0
v 0.731844 3.993014 0
v 0.364602 4.649662 -0.603622
v 0.78013 4.596439 -0.430518
v 0 3.988982 -0.571686
v 0.729205 4.464069 0
v -0.78013 4.596438 -0.430518
v -0.63151 4.571221 -0.348501
v -0.250053 3.969291 -0.507643
v 0.500105 3.842008 -0.093665
v -0.729205 4.464069 0
v -0.78013 4.3317 0.430519
v 0.433104 3.76852 0.145345
v -0.900816 4.464069 0
v -0.63151 4.356917 0.348502
v 0.63151 4.356917 0.348502
v 0.78013 4.3317 0.430518
v 0.633796 3.993014 0.365922
v -0.633795 3.993014 0.365922
v -0.433104 3.76852 0.145345
v 0.250053 3.714724 0.320313
v -0.250053 3.714724 0.320313
v 0 2.253719 -0.959975
v 0.536755 3.459311 -0.772248
v 0 3.459311 -0.894509
v 0.610349 2.253719 -0.828944
v -0.610349 2.253719 -0.828944
v 0 1.363391 -1.165467
v 0.929687 3.459311 -0.438226
v -0.714077 1.363391 -1.006904
v -0.536756 3.459311 -0.772248
v 0.714076 1.363391 -1.006905
v 1.057155 2.253719 -0.470959
v -1.236817 1.363391 -0.573705
v -1.057155 2.253719 -0.470959
v 1.067819 3.459311 0
v -0.929688 3.459311 -0.438226
v 1.236816 1.363391 -0.573705
v 1.214659 2.253719 0
v -1.581428 0.600932 1e-06
v -1.214659 2.253719 1e-06
v -1.067819 3.459311 0
v 1.584435 0.592268 0
v -0.663017 3.680336 0
v -0.678217 3.67159 0
v -0.667855 3.680336 0.018057
v 0.667855 3.680336 0.018056
v 0.900816 4.464069 0
v 0.250053 3.969291 -0.507644
v 0.433104 3.915495 -0.332676
v -0.364603 4.649662 -0.603622
v 0.63151 4.571221 -0.348501
v -0.433104 3.915495 -0.332676
v -0.450409 4.69334 -0.745679
v -0.500105 3.842008 -0.093665
v 0 3.695033 0.384355
v 0 4.678373 -0.697003
v 0.450408 4.69334 -0.745679
v 0 4.728808 -0.861036
vn 0.4274 0.1521 -0.8912
vn 0.4376 0.3318 -0.8357
vn 0 0.3714 -0.9285
vn 0.723 0.5015 -0.475
vn 0.8107 0.1693 -0.5604
vn -0.4274 0.1521 -0.8912
vn 0 0.1438 -0.9896
vn -0.4376 0.3318 -0.8357
vn -0.8159 0.2549 -0.5189
vn -0.8107 0.1693 -0.5604
vn 0 0.5185 -0.855
vn -0.4275 0.4657 -0.7748
vn -0.8019 0.3266 -0.5002
vn 0.4275 0.4657 -0.7748
vn 0.8019 0.3266 -0.5002
vn 0.8159 0.2549 -0.5189
vn 0.9382 0.2282 -0.2602
vn -0.9365 0.1678 -0.308
vn -0.823 0.5038 -0.2622
vn -0.4376 0.3669 -0.8209
vn 0 0.3476 -0.9376
vn 0 0.4163 -0.9092
vn 0.4376 0.3669 -0.8209
vn -0.3872 -0.4704 0.7929
vn -0.4204 -0.3485 0.8377
vn 0 -0.3715 0.9284
vn -0.9868 0.1388 -0.0829
vn -0.7788 0.4036 -0.4801
vn -0.723 0.5015 -0.475
vn -0.4388 -0.1883 -0.8786
vn 0 -0.1729 -0.9849
vn 0.4094 0.4507 -0.7932
vn 0.776 0.3932 -0.4931
vn -0.4396 0.1976 0.8761
vn 0 0.1788 0.9839
vn -0.7891 -0.2518 -0.5602
vn 0 -0.1438 0.9896
vn -0.4274 -0.1521 0.8912
vn -0.3417 -0.614 0.7114
vn -0.8194 -0.5103 0.261
vn -0.6568 -0.5794 0.4826
vn -0.8107 -0.1692 0.5605
vn 0.4274 -0.1521 0.8912
vn 0.4376 -0.3318 0.8357
vn 0.8107 -0.1692 0.5605
vn 0.3417 -0.614 0.7114
vn 0.6568 -0.5794 0.4826
vn 0.9389 -0.236 0.2504
vn 0.7903 -0.3041 0.5319
vn 0.816 -0.255 0.5188
vn -0.8206 -0.2662 0.5057
vn -0.4094 0.4507 -0.7932
vn 0.8194 -0.5103 0.261
vn 0.9364 -0.1678 0.3081
vn 0.6212 -0.3518 0.7002
vn 0.4272 -0.4656 0.775
vn -0.6037 -0.4022 0.6882
vn -0.8224 -0.296 0.4859
vn -0.9382 0.2282 -0.2602
vn -0.4944 0.8591 -0.1324
vn 0.1491 -0.9208 0.3605
vn 0.823 0.5038 -0.2622
vn 0.9365 0.1678 -0.308
vn 0.9912 0.0997 -0.0866
vn -0.9364 -0.1679 0.3082
vn -0.1994 -0.1133 0.9733
vn 0.1994 -0.1133 0.9733
vn -0.237 -0.9207 0.31
vn 0 0.9558 0.2939
vn 0 -0.6199 0.7847
vn 0 -0.9714 0.2372
vn -0.7828 0.2506 0.5695
vn -0.4573 0.1993 0.8667
vn 0.4396 0.1976 0.8761
vn 0.4573 0.1993 0.8667
vn 0.7868 -0.2356 -0.5705
vn 0.9432 -0.3107 -0.1176
vn -0.9372 0.3269 0.1213
vn -0.8023 0.2557 0.5394
vn 0.7828 0.2506 0.5695
vn 0.8023 0.2557 0.5394
vn 0.9082 -0.3724 0.1911
vn -0.9208 0.3612 -0.147
vn -0.9393 0.3341 0.078
vn -0.9268 -0.3513 -0.1327
vn 0.9372 0.3269 0.1213
vn 0.9393 0.3341 0.078
vn 0.8753 -0.4229 0.2345
vn -0.91 -0.369 0.189
vn -0.9017 -0.4136 0.1256
vn 0.9208 0.3612 -0.147
vn 0 -1 0
vn 0.4388 -0.1883 -0.8786
vn -0.2011 -0.9163 0.3463
vn 0.2011 -0.9163 0.3463
vn -0.013 -0.0048 0.9999
vn 0 0 1
vn 0.4637 -0.3104 0.8298
vn -0.4294 -0.4684 0.7721
vn 0.5558 0.0363 0.8305
vn 0.2263 -0.0027 0.974
vn 0.013 -0.0048 0.9999
vn 0.0266 0.0082 0.9996
vn -0.0266 0.0082 0.9996
vn -0.2263 -0.0027 0.974
vn 0.438 -0.4486 0.779
vn 0.4192 -0.2877 0.861
vn -0.4192 -0.2877 0.861
vn -0.5844 -0.05 0.8099
vn -0.4958 -0.1293 0.8587
vn -0.7011 -0.0703 0.7095
vn 0.4777 0.039 0.8776
vn 0 -0.5185 0.855
vn 0.9395 -0.243 0.2414
vn -0.9379 -0.2288 0.2607
vt 0.103207 0.286553
vt 0.087056 0.140658
vt 0.185773 0.136751
vt 0.062883 0.487797
vt 0.04888 0.295372
vt 0.279757 0.286553
vt 0.187714 0.283324
vt 0.29361 0.140658
vt 0.381673 0.15133
vt 0.354674 0.295372
vt 0.175562 0
vt 0.297105 0.005481
vt 0.398877 0.020454
vt 0.066814 0.005481
vt 0.798557 0
vt 0.779733 0.129839
vt 0.706486 0.035578
vt 0.319051 0.694143
vt 0.264117 0.674803
vt 0.28724 0.487797
vt 0.02391 0.15133
vt 0 0.020454
vt 0.84211 0.226364
vt 0.829074 0.172656
vt 0.798557 0.172673
vt 0.84211 0.118946
vt 0.468437 0.470942
vt 0.506164 0.59143
vt 0.448609 0.599717
vt 0.926373 0.280066
vt 0.877724 0.265679
vt 0.865032 0.322199
vt 0.791511 0.798407
vt 0.791511 0.866723
vt 0.696588 0.855892
vt 0.816369 0.08634
vt 0.877724 0.079626
vt 0.998898 0.911151
vt 1 0.946121
vt 0.916949 0.902654
vt 0.87978 0.400945
vt 0.798557 0.345327
vt 0.881912 0.356722
vt 0.464812 0.732423
vt 0.513453 0.725255
vt 0.504172 0.901938
vt 0.62761 0.908109
vt 0.566253 0.90203
vt 0.581354 0.724948
vt 0.548324 0.200271
vt 0.523468 0.331633
vt 0.463647 0.311273
vt 0.617235 0.212659
vt 0.56336 0.024571
vt 0.626298 0.035439
vt 0.687402 0.464985
vt 0.577425 0.461415
vt 0.605838 0.346106
vt 0.587378 0.591342
vt 0.816369 0.259004
vt 0.687449 0.038824
vt 0.683468 0.216557
vt 0.575819 0.461133
vt 0.470887 0.445477
vt 0.49774 0.182863
vt 0.47002 0.47094
vt 0.57388 0.47315
vt 0.319802 0.835202
vt 0.241915 0.933143
vt 0.390484 0.490177
vt 0.388408 0.490177
vt 0.389454 0.487797
vt 0.184223 0.476557
vt 0.110107 0.479569
vt 0.26537 0.479569
vt 0.331806 0.487797
vt 0.749755 0.476857
vt 0.726938 0.291402
vt 0.778605 0.269967
vt 0.926373 0.065231
vt 0.931508 0
vt 0.865032 0.023137
vt 0.647777 0.731338
vt 0.898551 0.849114
vt 0.883397 0.841403
vt 0.860458 0.810336
vt 0.946549 0.849114
vt 0.979298 0.810336
vt 0.960329 0.841403
vt 0.719692 0.609076
vt 0.712836 0.675185
vt 0.696588 0.609076
vt 0.919878 0.781173
vt 0.954184 0.788987
vt 0.921981 0.862476
vt 0.998495 0.85938
vt 0.916193 0.87867
vt 0.961028 0.514356
vt 0.878932 0.544692
vt 0.880102 0.518974
vt 0.87505 0.988998
vt 0.791511 0.998967
vt 0.80571 0.950967
vt 0.998898 0.80468
vt 0.915917 0.843165
vt 0.960404 0.567222
vt 0.878504 0.580949
vt 0.872402 0.946502
vt 0.826428 0.888103
vt 1 0.761709
vt 0.916193 0.80565
vt 0.81352 0.395864
vt 0.961028 0.621292
vt 0.878932 0.618031
vt 0.87505 0.89193
vt 0.881912 0.456008
vt 0.833731 0.459746
vt 0.962733 0.662076
vt 0.880102 0.646001
vt 0 0.743916
vt 0.024789 0.743915
vt 0.03241 0.871965
vt 0.787071 0.927938
vt 0.696901 0.905788
vt 0.787071 0.741295
vt 0.700508 0.800554
vt 0.779381 0.965649
vt 0.701364 0.936872
vt 0.907953 0.858811
vt 0.885572 0.788987
vt 0.936321 0.858811
vt 0.388408 0.561201
vt 0.379388 0.524499
vt 0.388408 0.487797
vt 0.800443 0.777993
vt 0.85818 0.888103
vt 0.891514 0.751131
vt 0.692247 0.194773
vt 0.917028 0.678409
vt 0.714982 0.265028
vt 0.339481 0.581424
vt 0.339021 0.647096
vt 0.380443 0.641241
vt 0.379388 0.495286
vt 0.339021 0.487797
vt 0.33993 0.554271
vt 0.204812 0.495377
vt 0.204591 0.486856
vt 0.188735 0.497945
vt 0.169609 0.48637
vt 0.202635 0.466467
vt 0.203837 0.48842
vt 0.999646 0.741295
vt 0.916949 0.77618
vt 0.954129 0.744859
vt 0.962185 0.683342
vt 0.339021 0.505751
vt 0.398877 0.479318
vt 0.931508 0.345327
vt 0.46053 0.908109
vt 0.68744 0.466296
vt 0.51802 0.009271
vt 0.339021 0.965302
vt 0.798557 0.456968
vt 0.398877 0.422884
vt 0.684482 0.485083
vt 0.851629 0.838345
vt 0.988126 0.838345
vt 0.712836 0.542966
vt 0.757227 0.494571
vt 0.768779 0.516385
vt 0.817865 0.476857
vt 0.878504 0.494571
vt 0.817865 0.502046
vt 0.817865 0.716106
vt 0.866952 0.701767
vt 0.878504 0.723581
vt 0.866952 0.516385
vt 0.817865 0.741295
vt 0.768779 0.701767
vt 0.757227 0.723581
vt 0.732845 0.555561
vt 0.732845 0.662591
vt 0.962733 0.476857
vt 0.120957 0.522117
vt 0.241915 0.487797
vt 0.134552 0.541915
vt 0.241914 0.976345
vt 0.241914 1
vt 0.134552 0.945898
vt 0.241915 0.51134
vt 0.120957 0.965698
vt 0.03241 0.615863
vt 0.055323 0.625797
vt 0.133429 0.944402
vt 0.0542 0.860532
vt 0.0542 0.627293
vt 0.707611 0.754602
vt 0.85818 0.741295
vt 0.824845 0.751127
vt 0.791511 0.814694
vt 0.800442 0.851397
vt 0.824845 0.878266
vt 0.891514 0.878271
vt 0.915917 0.851405
vt 0.915917 0.778001
vt 0.696588 0.47094
vt 0.696588 0
vt 0.735826 0.434271
vt 0.696588 0.033725
vt 0.380443 0.569205
vt 0.379388 0.569205
vt 0.202 0.51603
vt 0.197958 0.52224
o Cylinder.000_Cylinder.002
usemtl red
s 1
f 3/1/1 8/2/2 5/3/3
f 6/4/4 9/5/5 3/1/1
f 4/6/6 1/7/7 5/3/3
f 7/8/8 10/9/9 11/10/10
f 5/3/3 12/11/11 13/12/12
f 7/8/8 13/12/12 14/13/13
f 16/14/14 12/11/11 5/3/3
f 8/2/2 3/1/1 9/5/5
f 21/15/15 17/16/16 22/17/17
f 11/18/10 20/19/18 31/20/19
f 8/2/2 17/21/16 21/22/15
f 34/23/20 33/24/21 32/25/22
f 32/25/22 33/24/21 37/26/23
f 25/27/24 71/28/25 67/29/26
f 38/30/27 36/31/28 15/32/29
f 93/33/30 98/34/31 33/35/21
f 2/36/32 37/26/23 39/37/33
f 42/38/34 96/39/35 44/40/35
f 38/41/27 46/42/36 36/43/28
f 62/44/37 65/45/38 63/46/39
f 75/47/40 68/48/41 72/49/42
f 67/29/26 71/28/25 65/45/38
f 65/45/38 72/49/42 68/48/41
f 66/50/43 69/51/44 67/52/26
f 69/51/44 66/50/43 74/53/45
f 66/50/43 70/54/46 76/55/47
f 79/56/48 29/57/49 73/58/50
f 71/28/25 77/59/51 72/49/42
f 36/31/28 34/23/20 35/60/52
f 81/61/53 80/62/54 74/53/45
f 28/63/55 69/51/44 73/58/50
f 28/63/55 27/64/56 69/51/44
f 70/54/46 66/50/43 62/65/37
f 24/66/57 77/59/51 71/28/25
f 24/66/57 23/67/58 77/59/51
f 20/19/18 10/68/9 19/69/59
f 83/70/60 84/71/60 85/72/61
f 1/7/7 32/73/22 2/74/32
f 35/75/52 32/73/22 1/7/7
f 4/6/6 11/10/10 15/76/29
f 40/77/62 18/78/63 9/79/5
f 67/52/26 69/51/44 27/64/56
f 41/80/64 40/81/62 6/82/4
f 72/49/42 77/59/51 78/83/65
f 59/84/66 85/85/61 76/86/47
f 52/87/67 68/88/41 86/89/68
f 96/90/69 97/91/69 98/92/69
f 64/93/70 63/94/39 95/95/71
f 91/96/72 42/38/34 88/97/73
f 90/98/74 48/99/75 44/100/35
f 39/101/33 43/102/76 87/103/77
f 45/104/78 91/96/72 89/105/79
f 47/106/80 92/107/81 48/99/75
f 39/101/33 87/103/77 41/108/64
f 41/108/64 87/103/77 56/109/82
f 55/110/83 45/104/78 49/111/84
f 38/41/27 53/112/85 46/42/36
f 50/113/86 94/114/87 92/107/81
f 41/108/64 56/109/82 57/115/88
f 58/116/89 53/112/85 38/41/27
f 58/116/89 51/117/90 53/112/85
f 54/118/91 59/119/66 94/114/87
f 12/120/92 26/121/92 13/122/92
f 97/123/93 37/124/23 33/35/21
f 46/125/36 93/33/30 34/126/20
f 43/127/76 39/128/33 37/124/23
f 61/129/94 76/86/47 70/130/46
f 63/94/39 68/88/41 60/131/95
f 88/132/69 44/133/69 48/134/69
f 61/135/69 49/136/69 92/137/69
f 81/61/96 20/138/97 80/62/97
f 58/139/98 59/119/99 54/118/100
f 78/140/97 22/17/97 18/78/97
f 86/141/101 75/142/102 40/143/103
f 31/144/104 81/145/96 85/146/105
f 52/147/106 86/148/101 41/149/107
f 38/150/108 85/151/105 59/152/99
f 56/153/109 55/110/110 52/154/106
f 56/153/109 52/154/106 57/155/111
f 58/139/98 54/118/100 51/156/112
f 1/7/7 3/1/1 5/3/3
f 2/74/32 6/4/4 3/1/1
f 7/8/8 4/6/6 5/3/3
f 4/6/6 7/8/8 11/10/10
f 7/8/8 5/3/3 13/12/12
f 10/9/9 7/8/8 14/13/13
f 8/2/2 16/14/14 5/3/3
f 17/21/16 8/2/2 9/5/5
f 18/78/63 22/17/17 17/16/16
f 17/16/16 9/79/5 18/78/63
f 15/157/29 11/18/10 31/20/19
f 16/14/14 8/2/2 21/22/15
f 35/60/52 34/23/20 32/25/22
f 2/36/32 32/25/22 37/26/23
f 26/158/113 25/27/24 67/29/26
f 31/159/19 38/30/27 15/32/29
f 34/126/20 93/33/30 33/35/21
f 6/82/4 2/36/32 39/37/33
f 88/97/73 42/38/34 44/40/35
f 64/160/70 62/44/37 63/46/39
f 78/83/65 75/47/40 72/49/42
f 62/44/37 67/29/26 65/45/38
f 63/46/39 65/45/38 68/48/41
f 62/65/37 66/50/43 67/52/26
f 73/58/50 69/51/44 74/53/45
f 74/53/45 66/50/43 76/55/47
f 74/53/45 80/62/54 73/58/50
f 79/56/48 30/161/114 29/57/49
f 73/58/50 80/62/54 79/56/48
f 65/45/38 71/28/25 72/49/42
f 15/32/29 36/31/28 35/60/52
f 76/55/47 81/61/53 74/53/45
f 29/57/49 28/63/55 73/58/50
f 64/162/70 70/54/46 62/65/37
f 25/27/24 24/66/57 71/28/25
f 14/163/13 19/69/59 10/68/9
f 20/19/18 11/18/10 10/68/9
f 3/1/1 1/7/7 2/74/32
f 4/6/6 35/75/52 1/7/7
f 35/75/52 4/6/6 15/76/29
f 6/164/4 40/77/62 9/79/5
f 26/165/113 67/52/26 27/64/56
f 39/37/33 41/80/64 6/82/4
f 82/166/115 78/83/65 77/59/51
f 77/59/51 23/67/58 82/166/115
f 85/85/61 81/167/53 76/86/47
f 76/86/47 61/129/94 59/84/66
f 52/87/67 60/131/95 68/88/41
f 68/88/41 75/168/40 86/89/68
f 93/169/69 46/170/69 47/171/69
f 53/172/69 51/173/69 50/174/69
f 45/175/69 55/176/69 56/177/69
f 51/173/69 54/178/69 50/174/69
f 45/175/69 56/177/69 87/179/69
f 53/172/69 50/174/69 47/171/69
f 91/180/69 45/175/69 87/179/69
f 46/170/69 53/172/69 47/171/69
f 91/180/69 87/179/69 43/181/69
f 93/169/69 47/171/69 90/182/69
f 42/183/69 91/180/69 43/181/69
f 93/169/69 90/182/69 96/90/69
f 42/183/69 43/181/69 97/91/69
f 98/92/69 93/169/69 96/90/69
f 96/90/69 42/183/69 97/91/69
f 70/130/46 64/93/70 95/95/71
f 89/105/79 91/96/72 88/97/73
f 96/184/35 90/98/74 44/100/35
f 49/111/84 45/104/78 89/105/79
f 90/98/74 47/106/80 48/99/75
f 52/154/67 55/110/83 49/111/84
f 47/106/80 50/113/86 92/107/81
f 50/113/86 54/118/91 94/114/87
f 21/185/92 22/186/92 23/187/92
f 30/188/92 19/189/92 29/190/92
f 22/186/92 82/191/92 23/187/92
f 29/190/92 19/189/92 14/192/92
f 16/193/92 21/185/92 24/194/92
f 29/190/92 14/192/92 28/195/92
f 21/185/92 23/187/92 24/194/92
f 28/195/92 14/192/92 27/196/92
f 16/193/92 24/194/92 25/197/92
f 27/196/92 14/192/92 13/122/92
f 12/120/92 16/193/92 26/121/92
f 27/196/92 13/122/92 26/121/92
f 16/193/92 25/197/92 26/121/92
f 98/34/31 97/123/93 33/35/21
f 36/198/28 46/125/36 34/126/20
f 97/123/93 43/127/76 37/124/23
f 95/95/71 61/129/94 70/130/46
f 95/95/71 63/94/39 60/131/95
f 94/199/69 59/200/69 92/137/69
f 61/135/69 95/201/69 49/136/69
f 60/202/69 52/203/69 49/136/69
f 49/136/69 89/204/69 88/205/69
f 88/205/69 48/206/69 92/137/69
f 92/137/69 59/200/69 61/135/69
f 95/201/69 60/202/69 49/136/69
f 49/136/69 88/205/69 92/137/69
f 79/56/97 80/62/97 19/207/97
f 81/61/96 31/208/104 20/138/97
f 20/138/97 19/207/97 80/62/97
f 40/77/103 75/209/102 18/78/97
f 78/140/97 82/210/97 22/17/97
f 18/78/97 75/209/102 78/140/97
f 41/211/107 86/141/101 40/143/103
f 38/212/108 31/144/104 85/146/105
f 57/213/111 52/147/106 41/149/107
f 58/214/98 38/150/108 59/152/99
