mtllib beta hat.mtl
v -0.202343 5.701481 -0.321202
v -0.202343 5.614547 -0.321202
v -0.595502 5.614547 -0.321202
v -0.595502 5.701481 -0.321202
v -0.479901 5.614547 -0.273318
v -0.479901 5.701481 -0.273318
v -0.432017 5.614547 -0.157717
v -0.432017 5.701481 -0.157717
v -0.479901 5.614547 -0.042115
v -0.479901 5.701481 -0.042115
v -0.595502 5.614547 0.005768
v -0.595502 5.701481 0.005768
v -0.711104 5.614547 -0.042115
v -0.711104 5.701481 -0.042115
v -0.758987 5.614547 -0.157717
v -0.758987 5.701481 -0.157717
v -0.711104 5.614547 -0.273318
v -0.711104 5.701481 -0.273318
v -0.086742 5.614547 -0.273318
v -0.086742 5.701481 -0.273318
v -0.038858 5.614547 -0.157717
v -0.038858 5.701481 -0.157717
v -0.086742 5.614547 -0.042115
v -0.086742 5.701481 -0.042115
v -0.202343 5.614547 0.005768
v -0.202343 5.701481 0.005768
v -0.317945 5.614547 -0.042115
v -0.317945 5.701481 -0.042115
v -0.365828 5.614547 -0.157717
v -0.365828 5.701481 -0.157717
v -0.317945 5.614547 -0.273318
v -0.317945 5.701481 -0.273318
v 0.185355 5.701481 -0.321202
v 0.185355 5.614547 -0.321202
v 0.300957 5.614547 -0.273318
v 0.300957 5.701481 -0.273318
v 0.34884 5.614547 -0.157717
v 0.34884 5.701481 -0.157717
v 0.300957 5.614547 -0.042115
v 0.300957 5.701481 -0.042115
v 0.185355 5.614547 0.005768
v 0.185355 5.701481 0.005768
v 0.069754 5.614547 -0.042115
v 0.069754 5.701481 -0.042115
v 0.02187 5.614547 -0.157717
v 0.02187 5.701481 -0.157717
v 0.069754 5.614547 -0.273318
v 0.069754 5.701481 -0.273318
v 0.581245 5.701481 -0.321202
v 0.581245 5.614547 -0.321202
v 0.696846 5.614547 -0.273318
v 0.696846 5.701481 -0.273318
v 0.74473 5.614547 -0.157717
v 0.74473 5.701481 -0.157717
v 0.696846 5.614547 -0.042115
v 0.696846 5.701481 -0.042115
v 0.581245 5.614547 0.005768
v 0.581245 5.701481 0.005768
v 0.465643 5.614547 -0.042115
v 0.465643 5.701481 -0.042115
v 0.41776 5.614547 -0.157717
v 0.41776 5.701481 -0.157717
v 0.465643 5.614547 -0.273318
v 0.465643 5.701481 -0.273318
v -0.202343 5.701481 0.036464
v -0.202343 5.614547 0.036464
v -0.595502 5.614547 0.036464
v -0.595502 5.701481 0.036464
v -0.479901 5.614547 0.084347
v -0.479901 5.701481 0.084347
v -0.432017 5.614547 0.199949
v -0.432017 5.701481 0.199949
v -0.479901 5.614547 0.31555
v -0.479901 5.701481 0.31555
v -0.595502 5.614547 0.363434
v -0.595502 5.701481 0.363434
v -0.711104 5.614547 0.31555
v -0.711104 5.701481 0.31555
v -0.758987 5.614547 0.199949
v -0.758987 5.701481 0.199949
v -0.711104 5.614547 0.084347
v -0.711104 5.701481 0.084347
v -0.086742 5.614547 0.084347
v -0.086742 5.701481 0.084347
v -0.038858 5.614547 0.199949
v -0.038858 5.701481 0.199949
v -0.086742 5.614547 0.31555
v -0.086742 5.701481 0.31555
v -0.202343 5.614547 0.363434
v -0.202343 5.701481 0.363434
v -0.317945 5.614547 0.31555
v -0.317945 5.701481 0.31555
v -0.365828 5.614547 0.199949
v -0.365828 5.701481 0.199949
v -0.317945 5.614547 0.084347
v -0.317945 5.701481 0.084347
v 0.185355 5.701481 0.036464
v 0.185355 5.614547 0.036464
v 0.300957 5.614547 0.084347
v 0.300957 5.701481 0.084347
v 0.34884 5.614547 0.199949
v 0.34884 5.701481 0.199949
v 0.300957 5.614547 0.31555
v 0.300957 5.701481 0.31555
v 0.185355 5.614547 0.363434
v 0.185355 5.701481 0.363434
v 0.069754 5.614547 0.31555
v 0.069754 5.701481 0.31555
v 0.02187 5.614547 0.199949
v 0.02187 5.701481 0.199949
v 0.069754 5.614547 0.084347
v 0.069754 5.701481 0.084347
v 0.581245 5.701481 0.036464
v 0.581245 5.614547 0.036464
v 0.696846 5.614547 0.084347
v 0.696846 5.701481 0.084347
v 0.74473 5.614547 0.199949
v 0.74473 5.701481 0.199949
v 0.696846 5.614547 0.31555
v 0.696846 5.701481 0.31555
v 0.581245 5.614547 0.363434
v 0.581245 5.701481 0.363434
v 0.465643 5.614547 0.31555
v 0.465643 5.701481 0.31555
v 0.41776 5.614547 0.199949
v 0.41776 5.701481 0.199949
v 0.465643 5.614547 0.084347
v 0.465643 5.701481 0.084347
v -0.815794 5.161266 -0.403893
v -0.815794 5.140237 -0.385102
v -0.834584 5.161266 -0.385102
v 0.829353 5.161266 -0.403893
v 0.848144 5.161266 -0.385102
v 0.829353 5.140237 -0.385102
v 0.848144 5.161266 0.418681
v 0.829353 5.161266 0.437471
v 0.829353 5.140237 0.418681
v -0.834584 5.161266 0.418681
v -0.815794 5.140237 0.418681
v -0.815794 5.161266 0.437471
v -0.834584 5.590001 -0.385102
v -0.815793 5.611029 -0.385102
v -0.815793 5.590001 -0.403893
v 0.848144 5.590001 -0.385102
v 0.829354 5.590001 -0.403892
v 0.829354 5.611029 -0.385102
v 0.829353 5.590001 0.437472
v 0.848143 5.590001 0.418681
v 0.829353 5.611029 0.418681
v -0.815794 5.590001 0.437471
v -0.815794 5.611029 0.418681
v -0.834584 5.590001 0.418681
vn 0.7071 0 0.7071
vn 0.549 0.6302 0.549
vn 0 0.6302 0.7764
vn 0 0 1
vn 0.549 0.6302 -0.549
vn 0 0.6302 -0.7764
vn -0.549 0.6302 -0.549
vn -0.7764 0.6302 0
vn -0.549 0.6302 0.549
vn 0.7764 0.6302 0
vn 0 0 -1
vn 0.7071 0 -0.7071
vn -0.7071 0 0.7071
vn -1 0 0
vn 1 0 0
vn -0.7071 0 -0.7071
vn -0.8829 0.3187 -0.3447
vn -0.8829 -0.3187 -0.3447
vn -0.8829 -0.3187 0.3447
vn -0.8829 0.3187 0.3447
vn 0.8829 -0.3187 -0.3447
vn 0.8829 0.3187 -0.3447
vn 0.8829 0.3187 0.3447
vn 0.8829 -0.3187 0.3447
vn 0.3447 -0.3187 0.8829
vn 0.3447 0.3187 0.8829
vn -0.3447 0.3187 0.8829
vn -0.3447 -0.3187 0.8829
vn -0.3609 0.8599 -0.3609
vn -0.3609 0.8599 0.3609
vn 0.3609 0.8599 0.3609
vn 0.3609 0.8599 -0.3609
vn -0.3447 -0.3187 -0.8829
vn -0.3447 0.3187 -0.8829
vn 0.3447 0.3187 -0.8829
vn 0.3447 -0.3187 -0.8829
vn -0.3609 -0.8599 -0.3609
vn 0.3609 -0.8599 -0.3609
vn 0.3609 -0.8599 0.3609
vn -0.3609 -0.8599 0.3609
vt 0.3193 0.2386
vt 0.3777 0.2628
vt 0.5151 0.1219
vt 0.5734 0.0977
vt 0.6318 0.1219
vt 0.6559 0.1802
vt 0.6318 0.2386
vt 0.5734 0.2628
vt 0.5151 0.2386
vt 0.4909 0.1802
vt 0.7719 0.0977
vt 0.7135 0.1219
vt 0.6894 0.1802
vt 0.4361 0.2386
vt 0.4602 0.1802
vt 0.7135 0.2386
vt 0.3193 0.1219
vt 0.3777 0.0977
vt 0.4361 0.1219
vt 0.2952 0.1802
vt 0.7719 0.2628
vt 0.8302 0.2386
vt 0.8544 0.1802
vt 0.8302 0.1219
vt 0.1195 0.2386
vt 0.1779 0.2628
vt 0.2362 0.2386
vt 0.2604 0.1802
vt 0.1195 0.1219
vt 0.1779 0.0977
vt 0.2362 0.1219
vt 0.0953 0.1802
vt 0.3193 0.4192
vt 0.3777 0.4433
vt 0.5151 0.3024
vt 0.5734 0.2783
vt 0.6318 0.3024
vt 0.6559 0.3608
vt 0.6318 0.4192
vt 0.5734 0.4433
vt 0.5151 0.4192
vt 0.4909 0.3608
vt 0.7719 0.2783
vt 0.7135 0.3024
vt 0.6894 0.3608
vt 0.4361 0.4192
vt 0.4602 0.3608
vt 0.7135 0.4192
vt 0.3193 0.3024
vt 0.3777 0.2783
vt 0.4361 0.3024
vt 0.2952 0.3608
vt 0.7719 0.4433
vt 0.8302 0.4192
vt 0.8544 0.3608
vt 0.8302 0.3024
vt 0.1195 0.4192
vt 0.1779 0.4433
vt 0.2362 0.4192
vt 0.2604 0.3608
vt 0.1195 0.3024
vt 0.1779 0.2783
vt 0.2362 0.3024
vt 0.0953 0.3608
vt 0.9667 0.8502
vt 0.8809 0.8502
vt 0.8809 0.6702
vt 0.9667 0.6702
vt 0.4958 0.8502
vt 0.41 0.8502
vt 0.41 0.6702
vt 0.4958 0.6702
vt 0.5042 0.6618
vt 0.5042 0.5761
vt 0.8725 0.5761
vt 0.8725 0.6618
vt 0.0333 0.8502
vt 0.0333 0.6702
vt 0.4016 0.6702
vt 0.4016 0.8502
vt 0.8725 0.8586
vt 0.8725 0.9443
vt 0.5042 0.9443
vt 0.5042 0.8586
vt 0.8725 0.8544
vt 0.8767 0.8586
vt 0.5 0.8586
vt 0.5042 0.8544
vt 0.4958 0.666
vt 0.5 0.6702
vt 0.8767 0.6702
vt 0.8809 0.666
vt 0.9709 0.8502
vt 0.9667 0.8544
vt 0.41 0.8544
vt 0.4058 0.8502
vt 0.5 0.5761
vt 0.5042 0.5719
vt 0.8725 0.5719
vt 0.8767 0.5761
vt 0.5042 0.8502
vt 0.8725 0.8502
vt 0.8725 0.6702
vt 0.8809 0.8544
vt 0.5042 0.6702
vt 0.5 0.9443
vt 0.41 0.666
vt 0.8767 0.6618
vt 0.4016 0.8544
vt 0.0333 0.8544
vt 0.9709 0.6702
vt 0.0333 0.666
vt 0.4016 0.666
o Cube.001
usemtl Material.001
s 1
f 39/1/1 40/1/2 42/2/3 41/2/4
f 20/3/5 1/4/6 32/5/7 30/6/8
f 3/11/11 4/11/6 6/12/5 5/12/12
f 27/7/13 28/7/9 30/6/8 29/6/14
f 5/12/12 6/12/5 8/13/10 7/13/15
f 43/14/13 44/14/9 46/15/8 45/15/14
f 25/8/4 26/8/3 28/7/9 27/7/13
f 7/13/15 8/13/10 10/16/2 9/16/1
f 36/17/5 33/18/6 48/19/7 46/15/8
f 23/9/1 24/9/2 26/8/3 25/8/4
f 9/16/1 10/16/2 12/21/3 11/21/4
f 21/10/15 22/10/10 24/9/2 23/9/1
f 11/21/4 12/21/3 14/22/9 13/22/13
f 31/5/16 32/5/7 1/4/6 2/4/11
f 19/3/12 20/3/5 22/10/10 21/10/15
f 13/22/13 14/22/9 16/23/8 15/23/14
f 6/12/5 4/11/6 18/24/7 16/23/8
f 2/4/11 1/4/6 20/3/5 19/3/12
f 15/23/14 16/23/8 18/24/7 17/24/16
f 41/2/4 42/2/3 44/14/9 43/14/13
f 29/6/14 30/6/8 32/5/7 31/5/16
f 17/24/16 18/24/7 4/11/6 3/11/11
f 37/20/15 38/20/10 40/1/2 39/1/1
f 47/19/16 48/19/7 33/18/6 34/18/11
f 35/17/12 36/17/5 38/20/10 37/20/15
f 34/18/11 33/18/6 36/17/5 35/17/12
f 45/15/14 46/15/8 48/19/7 47/19/16
f 55/25/1 56/25/2 58/26/3 57/26/4
f 59/27/13 60/27/9 62/28/8 61/28/14
f 52/29/5 49/30/6 64/31/7 62/28/8
f 57/26/4 58/26/3 60/27/9 59/27/13
f 53/32/15 54/32/10 56/25/2 55/25/1
f 63/31/16 64/31/7 49/30/6 50/30/11
f 51/29/12 52/29/5 54/32/10 53/32/15
f 50/30/11 49/30/6 52/29/5 51/29/12
f 61/28/14 62/28/8 64/31/7 63/31/16
f 103/33/1 104/33/2 106/34/3 105/34/4
f 84/35/5 65/36/6 96/37/7 94/38/8
f 67/43/11 68/43/6 70/44/5 69/44/12
f 91/39/13 92/39/9 94/38/8 93/38/14
f 69/44/12 70/44/5 72/45/10 71/45/15
f 107/46/13 108/46/9 110/47/8 109/47/14
f 89/40/4 90/40/3 92/39/9 91/39/13
f 71/45/15 72/45/10 74/48/2 73/48/1
f 100/49/5 97/50/6 112/51/7 110/47/8
f 87/41/1 88/41/2 90/40/3 89/40/4
f 73/48/1 74/48/2 76/53/3 75/53/4
f 85/42/15 86/42/10 88/41/2 87/41/1
f 75/53/4 76/53/3 78/54/9 77/54/13
f 95/37/16 96/37/7 65/36/6 66/36/11
f 83/35/12 84/35/5 86/42/10 85/42/15
f 77/54/13 78/54/9 80/55/8 79/55/14
f 70/44/5 68/43/6 82/56/7 80/55/8
f 66/36/11 65/36/6 84/35/5 83/35/12
f 79/55/14 80/55/8 82/56/7 81/56/16
f 105/34/4 106/34/3 108/46/9 107/46/13
f 93/38/14 94/38/8 96/37/7 95/37/16
f 81/56/16 82/56/7 68/43/6 67/43/11
f 101/52/15 102/52/10 104/33/2 103/33/1
f 111/51/16 112/51/7 97/50/6 98/50/11
f 99/49/12 100/49/5 102/52/10 101/52/15
f 98/50/11 97/50/6 100/49/5 99/49/12
f 109/47/14 110/47/8 112/51/7 111/51/16
f 119/57/1 120/57/2 122/58/3 121/58/4
f 123/59/13 124/59/9 126/60/8 125/60/14
f 116/61/5 113/62/6 128/63/7 126/60/8
f 121/58/4 122/58/3 124/59/9 123/59/13
f 117/64/15 118/64/10 120/57/2 119/57/1
f 127/63/16 128/63/7 113/62/6 114/62/11
f 115/61/12 116/61/5 118/64/10 117/64/15
f 114/62/11 113/62/6 116/61/5 115/61/12
f 125/60/14 126/60/8 128/63/7 127/63/16
f 141/65/17 131/66/18 138/67/19 152/68/20
f 133/69/21 144/70/22 148/71/23 135/72/24
f 136/73/25 147/74/26 150/75/27 140/76/28
f 142/77/29 151/78/30 149/79/31 146/80/32
f 129/81/33 143/82/34 145/83/35 132/84/36
f 129/81/33 130/85/37 131/86/18
f 132/84/36 133/87/21 134/88/38
f 135/72/24 136/89/25 137/90/39
f 138/67/19 139/91/40 140/92/28
f 141/65/17 142/93/29 143/94/34
f 144/70/22 145/95/35 146/96/32
f 147/74/26 148/97/23 149/98/31
f 150/75/27 151/99/30 152/100/20
f 129/81/33 132/84/36 134/101/38 130/102/37
f 130/102/37 139/103/40 138/67/19 131/66/18
f 131/66/18 141/65/17 143/94/34 129/104/33
f 133/69/21 135/72/24 137/105/39 134/101/38
f 132/84/36 145/83/35 144/106/22 133/87/21
f 136/73/25 140/76/28 139/103/40 137/105/39
f 135/72/24 148/71/23 147/107/26 136/89/25
f 140/76/28 150/75/27 152/100/20 138/108/19
f 142/77/29 146/80/32 145/109/35 143/110/34
f 141/65/17 152/68/20 151/111/30 142/93/29
f 146/80/32 149/79/31 148/71/23 144/70/22
f 149/79/31 151/78/30 150/112/27 147/113/26
f 130/102/37 134/101/38 137/105/39 139/103/40
