mtllib Conical Hat.mtl
v 0 4.642029 -0.997274
v 0 4.770064 -1.145308
v 0.504457 4.657348 -0.862976
v 0.570742 4.787395 -0.993363
v 0.873746 4.699199 -0.496067
v 0.988555 4.834746 -0.578243
v 1.008915 4.75637 0.005141
v 1.141485 4.899429 -0.011177
v 0.873746 4.81354 0.506348
v 0.988555 4.964111 0.555888
v 0.504457 4.855392 0.873257
v 0.570742 5.011462 0.971008
v 0 4.87071 1.007555
v 0 5.028793 1.122953
v -0.504457 4.855392 0.873257
v -0.570742 5.011462 0.971009
v -0.873746 4.81354 0.506348
v -0.988555 4.964111 0.555888
v -1.008915 4.75637 0.005141
v -1.141485 4.899429 -0.011177
v -0.873746 4.699199 -0.496066
v -0.988555 4.834746 -0.578242
v -0.504458 4.657348 -0.862976
v -0.570743 4.787395 -0.993363
v 0 5.660363 -0.097974
v 0 5.449869 -0.073964
vn 0 -0.7526 0.6585
vn -0.2845 -0.7612 0.5827
vn 0 -0.9935 0.1133
vn 0.2786 0.7703 -0.5735
vn 0 0.7619 -0.6477
vn 0 0.9935 -0.1133
vn -0.2786 0.7703 -0.5735
vn -0.4825 0.7935 -0.3709
vn -0.5571 0.825 -0.0941
vn -0.4825 0.8566 0.1827
vn -0.2786 0.8797 0.3853
vn 0 0.8882 0.4594
vn 0.2786 0.8797 0.3853
vn 0.4825 0.8566 0.1827
vn 0.5571 0.825 -0.0941
vn 0.4825 0.7935 -0.3709
vn -0.4927 -0.7848 0.3758
vn -0.5689 -0.8171 0.0932
vn -0.4927 -0.8493 -0.1894
vn -0.2845 -0.8729 -0.3963
vn 0 -0.8815 -0.4721
vn 0.2845 -0.8729 -0.3963
vn 0.4927 -0.8493 -0.1894
vn 0.5689 -0.8171 0.0932
vn 0.4927 -0.7848 0.3758
vn 0.2845 -0.7612 0.5827
vn 0 -0.7563 -0.6542
vn 0.3678 -0.7452 -0.5562
vn 0.6371 -0.7147 -0.2887
vn 0.7356 -0.673 0.0768
vn 0.6371 -0.6313 0.4422
vn 0.3678 -0.6008 0.7097
vn 0 -0.5896 0.8077
vn -0.3678 -0.6008 0.7097
vn -0.6371 -0.6313 0.4422
vn -0.7356 -0.673 0.0768
vn -0.6371 -0.7147 -0.2887
vn -0.3678 -0.7452 -0.5562
vt 0.503024 0.940065
vt 0.723577 0.879316
vt 0.500192 0.507178
vt 0.753012 0.931268
vt 0.503477 1
vt 0.500266 0.509923
vt 0.253011 0.934757
vt 0.068726 0.753021
vt 0 0.503489
vt 0.065249 0.253022
vt 0.246988 0.068732
vt 0.496523 0
vt 0.746988 0.065243
vt 0.931274 0.246978
vt 1 0.496511
vt 0.934752 0.746978
vt 0.88421 0.716429
vt 0.941881 0.49505
vt 0.881136 0.274498
vt 0.718254 0.113869
vt 0.496876 0.056203
vt 0.276323 0.116953
vt 0.11569 0.27984
vt 0.058019 0.501218
vt 0.118763 0.72177
vt 0.281646 0.882399
o Cylinder
usemtl Material.001
s 1
f 1/1/1 3/2/2 26/3/3
f 4/4/4 2/5/5 25/6/6
f 2/5/5 24/7/7 25/6/6
f 24/7/7 22/8/8 25/6/6
f 22/8/8 20/9/9 25/6/6
f 20/9/9 18/10/10 25/6/6
f 18/10/10 16/11/11 25/6/6
f 16/11/11 14/12/12 25/6/6
f 14/12/12 12/13/13 25/6/6
f 12/13/13 10/14/14 25/6/6
f 10/14/14 8/15/15 25/6/6
f 8/15/15 6/16/16 25/6/6
f 6/16/16 4/4/4 25/6/6
f 3/2/2 5/17/17 26/3/3
f 5/17/17 7/18/18 26/3/3
f 7/18/18 9/19/19 26/3/3
f 9/19/19 11/20/20 26/3/3
f 11/20/20 13/21/21 26/3/3
f 13/21/21 15/22/22 26/3/3
f 15/22/22 17/23/23 26/3/3
f 17/23/23 19/24/24 26/3/3
f 19/24/24 21/25/25 26/3/3
f 21/25/25 23/26/26 26/3/3
f 23/26/26 1/1/1 26/3/3
f 2/5/27 4/4/28 3/2/28
f 4/4/28 6/16/29 5/17/29
f 6/16/29 8/15/30 7/18/30
f 8/15/30 10/14/31 9/19/31
f 10/14/31 12/13/32 11/20/32
f 12/13/32 14/12/33 13/21/33
f 14/12/33 16/11/34 15/22/34
f 16/11/34 18/10/35 17/23/35
f 18/10/35 20/9/36 19/24/36
f 20/9/36 22/8/37 21/25/37
f 24/7/38 2/5/27 1/1/27
f 22/8/37 24/7/38 23/26/38
f 1/1/27 2/5/27 3/2/28
f 3/2/28 4/4/28 5/17/29
f 5/17/29 6/16/29 7/18/30
f 7/18/30 8/15/30 9/19/31
f 9/19/31 10/14/31 11/20/32
f 11/20/32 12/13/32 13/21/33
f 13/21/33 14/12/33 15/22/34
f 15/22/34 16/11/34 17/23/35
f 17/23/35 18/10/35 19/24/36
f 19/24/36 20/9/36 21/25/37
f 23/26/38 24/7/38 1/1/27
f 21/25/37 22/8/37 23/26/38
