mtllib Panama Hat.mtl
v 0.589695 5.208367 0.11381
v 0.589695 5.208367 -0.11381
v 0.73019 5.219142 0.11381
v 0.73019 5.219142 -0.11381
v 0.609492 5.19435 0
v 0.716675 5.204223 0
v 0.602942 5.035644 0.11381
v 0.602942 5.035644 -0.11381
v 0.743437 5.046419 -0.11381
v 0.743437 5.046419 0.11381
v 0.726781 5.045968 0
v 0.619598 5.036095 0
v 0.000461 4.976517 -0.74633
v 0.000461 5.175561 -0.723405
v 0.367976 4.976517 -0.64534
v 0.358799 5.175561 -0.624937
v 0.637015 4.976517 -0.369431
v 0.621121 5.175561 -0.329936
v 0.735491 4.976517 0.007468
v 0.717137 5.175561 0.007468
v 0.637015 4.976517 0.384367
v 0.603281 5.175561 0.374956
v 0.367976 4.976517 0.660277
v 0.348499 5.175561 0.643976
v 0.000461 4.976517 0.761266
v 0.000461 5.175561 0.7525
v -0.367053 4.976517 0.660277
v -0.347577 5.175561 0.643976
v -0.636093 4.976517 0.384367
v -0.602359 5.175561 0.374956
v -0.734568 4.976517 0.007468
v -0.716215 5.175561 0.007468
v -0.636093 4.976517 -0.369431
v -0.620199 5.175561 -0.36002
v -0.367054 4.976517 -0.64534
v -0.357877 5.175561 -0.598955
v 0.331303 4.992349 -0.595796
v 0.283135 5.676488 -0.528622
v 0.578992 4.992349 -0.329914
v 0.495563 5.669609 -0.300426
v 0.669653 4.992349 -0.022827
v 0.573317 5.654258 -0.044531
v 0.578992 4.992349 0.340375
v 0.331303 4.992349 0.606257
v 0.533888 5.642864 0.051378
v 0.156313 5.59776 0.561029
v 0.346422 5.642865 0.155856
v 0.522887 5.397289 0.232194
v 0.299889 5.387486 0.567708
v 0.080699 5.566531 0.327748
v 0.301046 5.606721 -0.131754
v 0.189522 5.622301 -0.352601
v -0.007047 4.992349 -0.693116
v -0.007047 5.679006 -0.612147
v -0.345396 4.992349 -0.595796
v -0.297229 5.676488 -0.528622
v -0.593085 4.992349 -0.329914
v -0.509656 5.669609 -0.300426
v -0.683746 4.992349 -0.022827
v -0.587411 5.654258 -0.044531
v -0.593085 4.992349 0.340375
v -0.345396 4.992349 0.606257
v -0.007047 4.992349 0.703577
v -0.007047 5.595499 0.60802
v -0.547981 5.642864 0.051378
v -0.170406 5.59776 0.561029
v -0.360515 5.642865 0.155856
v -0.53698 5.397289 0.232194
v -0.313982 5.387486 0.567708
v -0.007047 5.628493 -0.439014
v -0.007047 5.561739 0.401393
v -0.094792 5.566531 0.327748
v -0.315139 5.606721 -0.131754
v -0.203615 5.622301 -0.352601
v -0.007047 4.83905 -1.065439
v -0.007047 4.973206 -1.065439
v 0.497988 4.871623 -0.922697
v 0.497988 5.005778 -0.922697
v 0.867699 4.905777 -0.532719
v 0.867699 5.039933 -0.532719
v 1.003022 4.932922 0
v 1.003022 5.067078 0
v 0.867699 4.905777 0.532719
v 0.867699 5.039933 0.532719
v 0.497988 4.871623 0.922697
v 0.497988 5.005778 0.922697
v -0.007046 4.83905 1.065439
v -0.007046 4.973206 1.065439
v -0.512081 4.871623 0.922697
v -0.512081 5.005778 0.922697
v -0.881791 4.905777 0.53272
v -0.881791 5.039933 0.53272
v -1.017115 4.932922 0
v -1.017115 5.067078 0
v -0.881792 4.905777 -0.532719
v -0.881792 5.039933 -0.532719
v -0.512081 4.871623 -0.922697
v -0.512081 5.005778 -0.922697
v 0.331303 5.007444 -0.595796
v 0.578992 5.007444 -0.329914
v 0.669653 5.007444 -0.022827
v 0.578992 5.007444 0.340375
v 0.331303 5.007444 0.606257
v -0.007047 5.007444 -0.693116
v -0.345396 5.007444 -0.595796
v -0.593085 5.007444 -0.329914
v -0.683746 5.007444 -0.022827
v -0.593085 5.007444 0.340375
v -0.345396 5.007444 0.606257
v -0.007047 5.007444 0.703577
vn -0.9974 -0.0717 0
vn -0.998 -0.0637 0
vn -0.9861 -0.068 -0.1516
vn 0.9974 0.0717 0
vn 0.998 0.0637 0
vn 0.9881 0.0681 0.1378
vn -0.0831 0.9965 0
vn -0.0917 0.9958 0
vn -0.083 0.9882 -0.1286
vn 0.9889 0.0758 -0.1274
vn 0.9881 0.0681 -0.1378
vn -0.0759 0.9898 0.1207
vn -0.083 0.9882 0.1286
vn -0.9839 -0.0754 0.1618
vn -0.9861 -0.068 0.1516
vn 0 0 1
vn 0 0 -1
vn 0.083 -0.9965 0
vn 0.0917 -0.9958 0
vn 0.0838 -0.9965 -0.0008
vn -0.01 0.1341 -0.9909
vn 0.512 0.1247 -0.8498
vn 0.5033 0.111 -0.8569
vn 0.8793 0.1528 -0.451
vn 0.8589 0.1508 -0.4893
vn 0.9944 0.1053 -0.0042
vn 0.9951 0.0983 -0.007
vn 0.8455 0.1629 0.5084
vn 0.8559 0.1545 0.4935
vn 0.5097 0.1093 0.8534
vn 0.5143 0.1243 0.8485
vn 0 0.044 0.999
vn 0 0.0647 0.9979
vn -0.5097 0.1093 0.8534
vn -0.5143 0.1243 0.8485
vn -0.8455 0.1629 0.5084
vn -0.8559 0.1545 0.4935
vn -0.9944 0.1053 0.0067
vn -0.852 0.0924 -0.5153
vn -0.8556 0.1101 -0.5058
vn -0.507 0.198 -0.8389
vn -0.5284 0.1984 -0.8254
vn 0 1 0
vn 0 -1 0
vn 0 0.1175 -0.9931
vn 0 0.7754 -0.6314
vn 0.3377 0.774 -0.5356
vn 0.5208 0.1202 -0.8451
vn 0.5528 0.78 -0.293
vn 0.863 0.1275 -0.4888
vn 0.651 0.7569 0.0566
vn 0.1392 0.9902 0.0027
vn -0.1216 0.9906 0.0629
vn 0.1216 0.9906 0.0629
vn 0.127 0.9633 0.2363
vn 0.8196 0.347 0.4559
vn 0.4769 0.7949 0.375
vn 0.2936 0.792 0.5352
vn 0 0.9979 -0.0652
vn 0 0.7583 0.6519
vn 0.5723 0.3092 0.7595
vn 0.9872 0.1597 -0.002
vn 0 0.1355 0.9908
vn -0.1392 0.9902 0.0027
vn 0 0.9802 0.1979
vn -0.0844 0.9839 0.1577
vn -0.5208 0.1202 -0.8451
vn -0.3377 0.774 -0.5356
vn -0.863 0.1275 -0.4888
vn -0.5528 0.78 -0.293
vn -0.9872 0.1597 -0.002
vn -0.651 0.7569 0.0566
vn 0.8689 0.1969 0.4541
vn -0.127 0.9633 0.2363
vn -0.4769 0.7949 0.375
vn -0.8196 0.347 0.4559
vn -0.2936 0.792 0.5352
vn -0.5723 0.3092 0.7595
vn 0.0844 0.9839 0.1577
vn 0.5267 0 -0.85
vn 0.5079 0 -0.8614
vn 0.8803 0 -0.4744
vn 0.8712 0 -0.4908
vn 1 0 0
vn 0.8803 0 0.4744
vn -0.8803 0 0.4744
vn -1 0 0
vn 0.5079 0 0.8614
vn 0.5267 0 0.85
vn -0.5267 0 0.85
vn -0.5079 0 0.8614
vn -0.8712 0 0.4908
vn -0.5267 0 -0.85
vn -0.5079 0 -0.8614
vn -0.8712 0 -0.4908
vn -0.8803 0 -0.4744
vn 0.8712 0 0.4908
vn 0 0.9948 -0.1019
vn 0 0.9749 -0.2224
vn 0 -0.998 0.0621
vn 0 -0.9948 0.1019
vn 0 -0.9749 0.2224
vn 0 -0.998 -0.0621
vn 0 -0.9948 -0.1019
vn 0 -0.9749 -0.2224
vn 0 0.998 -0.0621
vn 0 0.9948 0.1019
vn 0 0.998 0.0621
vn 0 0.9749 0.2224
vn 0 0.9948 0.102
vn -0.8689 0.1969 0.4541
vn -0.5213 0.1238 0.8443
vn -0.9839 -0.0754 -0.1618
vn 0.9889 0.0758 0.1274
vn -0.0759 0.9898 -0.1207
vn 0.0764 -0.997 -0.0072
vn 0.0838 -0.9965 0.0008
vn 0.0764 -0.997 0.0072
vn 0 0.1144 -0.9934
vn -0.9958 0.0918 0
vn 0.5213 0.1238 0.8443
vt 0.76816 0.349686
vt 0.767933 0.208655
vt 0.667036 0.210076
vt 0.765756 0.348429
vt 0.765529 0.207398
vt 0.866427 0.205977
vt 0.667333 0.364207
vt 0.664181 0.360643
vt 0.663884 0.206512
vt 0.866724 0.360108
vt 0.869875 0.363671
vt 0.869578 0.209541
vt 0.937052 0.142468
vt 0.904649 0.142468
vt 0.904849 0.042946
vt 0.869857 0.142468
vt 0.872175 0.042946
vt 0.839034 0.142468
vt 0.83905 0.042946
vt 0.805299 0.142468
vt 0.806101 0.042946
vt 0.773135 0.142468
vt 0.773889 0.042946
vt 0.742278 0.142468
vt 0.742271 0.042946
vt 0.711302 0.142468
vt 0.710505 0.042946
vt 0.678709 0.142468
vt 0.677861 0.042946
vt 0.644291 0.142468
vt 0.610502 0.142468
vt 0.610497 0.042946
vt 0.969453 0.042946
vt 0.970764 0.142468
vt 0.578677 0.142468
vt 0.960951 0.142468
vt 0.630697 0.142468
vt 0.828326 0.142468
vt 0.599833 0.042946
vt 0.794633 0.042946
vt 0.762411 0.042946
vt 0.018627 0.011799
vt 0.018627 0.355128
vt 0.097568 0.353869
vt 0.09984 0.011799
vt 0.18091 0.350429
vt 0.185 0.011799
vt 0.253583 0.342754
vt 0.195726 0.659005
vt 0.324496 0.808486
vt 0.124044 0.808486
vt 0.339257 0.714923
vt 0.396663 0.69009
vt 0.400242 0.748911
vt 0.277413 0.583116
vt 0.22427 0.635048
vt 0.22427 0.56783
vt 0.32412 0.580943
vt 0.330561 0.214269
vt 0.260323 0.011799
vt 0.434686 0.209368
vt 0.512623 0.313375
vt 0.512623 0.011799
vt 0.252815 0.659005
vt 0.413069 0.780111
vt 0.318669 0.937591
vt 0.22427 0.964763
vt 0.22427 0.908441
vt 0.387774 0.863357
vt 0.288216 0.88033
vt 0.015625 0.011799
vt 0.097825 0.011799
vt 0.095525 0.353869
vt 0.184021 0.011799
vt 0.17988 0.350429
vt 0.253437 0.342754
vt 0.348365 0.011799
vt 0.109283 0.714923
vt 0.048298 0.748911
vt 0.051877 0.69009
vt 0.171128 0.583116
vt 0.124421 0.580943
vt 0.33135 0.214269
vt 0.280696 0.337057
vt 0.470529 0.314505
vt 0.436741 0.209368
vt 0.035472 0.780111
vt 0.129871 0.937591
vt 0.160324 0.88033
vt 0.060766 0.863357
vt 0.739895 0.96358
vt 0.861503 0.929209
vt 0.950526 0.835305
vt 0.983111 0.707031
vt 0.950526 0.578757
vt 0.529264 0.578757
vt 0.496679 0.707031
vt 0.861503 0.484853
vt 0.739895 0.450482
vt 0.618287 0.484853
vt 0.618287 0.929209
vt 0.529264 0.835305
vt 0.34937 0.011799
vt 0.434609 0.011799
vt 0 0
vt 0.937071 0.042946
vt 0.644274 0.042946
vt 0.577366 0.042946
vt 0.727419 0.142468
vt 0.762211 0.142468
vt 0.794614 0.142468
vt 0.860152 0.142468
vt 0.89394 0.142468
vt 0.928358 0.142468
vt 0.59984 0.142468
vt 0.662861 0.142468
vt 0.696596 0.142468
vt 0.827015 0.042946
vt 0.960155 0.042946
vt 0.729737 0.042946
vt 0.663663 0.042946
vt 0.696612 0.042946
vt 0.631451 0.042946
vt 0.92751 0.042946
vt 0.893924 0.042946
vt 0.860146 0.042946
vt 0.280515 0.337057
vt 0.43258 0.011799
vt 0.468069 0.314505
vt 0.015625 0.355128
o Cylinder
usemtl Material.003
s 1
f 5/1/1 12/2/2 7/3/3
f 6/4/4 11/5/5 9/6/6
f 6/4/7 5/1/8 1/7/9
f 6/4/4 3/8/10 10/9/11
f 6/4/7 4/10/12 2/11/13
f 5/1/1 2/11/14 8/12/15
f 1/7/16 7/3/16 10/9/16
f 2/11/17 4/10/17 9/6/17
f 12/2/18 11/5/19 10/9/20
f 14/13/21 16/14/22 15/15/23
f 16/14/22 18/16/24 17/17/25
f 18/16/24 20/18/26 19/19/27
f 20/18/26 22/20/28 21/21/29
f 22/20/28 24/22/30 23/23/31
f 24/22/30 26/24/32 25/25/33
f 25/25/33 26/24/32 28/26/34
f 27/27/35 28/26/34 30/28/36
f 29/29/37 30/28/36 32/30/38
f 32/30/38 34/31/39 33/32/40
f 35/33/41 36/34/42 14/13/21
f 33/32/40 34/31/39 36/35/42
f 28/36/43 24/37/43 36/38/43
f 25/39/44 13/40/44 15/41/44
f 53/42/45 54/43/46 38/44/47
f 37/45/48 38/44/47 40/46/49
f 39/47/50 40/46/49 42/48/51
f 72/49/52 51/50/53 73/51/54
f 47/52/55 48/53/56 45/54/57
f 46/55/58 71/56/59 64/57/60
f 46/55/58 49/58/61 47/52/55
f 42/48/51 48/59/56 41/60/62
f 49/61/61 64/62/60 63/63/63
f 47/52/55 50/64/64 46/55/58
f 46/55/58 50/64/64 71/56/59
f 51/50/53 45/54/57 42/65/51
f 47/52/55 51/50/53 50/64/64
f 38/66/47 54/67/46 70/68/65
f 40/69/49 38/66/47 52/70/66
f 53/71/45 55/72/67 56/73/68
f 55/72/67 57/74/69 58/75/70
f 57/74/69 59/60/71 60/76/72
f 43/77/73 48/59/56 49/61/61
f 67/78/74 65/79/75 68/80/76
f 66/81/77 64/57/60 71/56/59
f 66/81/77 67/78/74 69/82/78
f 68/83/76 65/84/75 60/76/72
f 64/62/60 66/85/77 69/86/78
f 67/78/74 66/81/77 72/49/52
f 66/81/77 71/56/59 72/49/52
f 60/87/72 65/79/75 73/51/54
f 67/78/74 72/49/52 73/51/54
f 56/88/68 74/89/79 70/68/65
f 58/90/70 73/51/54 74/89/79
f 76/91/17 78/92/80 77/92/81
f 78/92/80 80/93/82 79/93/83
f 81/94/84 82/94/84 84/95/85
f 92/96/86 94/97/87 93/97/87
f 85/98/88 86/98/89 88/99/16
f 88/99/16 90/100/90 89/100/91
f 90/100/90 92/96/86 91/96/92
f 98/101/93 97/101/94 95/102/95
f 93/97/87 94/97/87 96/102/96
f 97/101/94 98/101/93 76/91/17
f 81/94/84 79/93/83 80/93/82
f 83/95/97 84/95/85 86/98/89
f 78/92/98 76/91/99 98/101/98
f 79/93/100 95/102/100 97/101/101
f 75/91/102 77/92/101 97/101/101
f 81/94/44 83/95/103 91/96/103
f 81/94/44 93/97/44 95/102/100
f 85/98/104 87/99/105 89/100/104
f 85/98/104 89/100/104 91/96/103
f 80/93/106 96/102/106 94/97/43
f 80/93/106 78/92/98 98/101/98
f 86/98/107 84/95/108 92/96/108
f 84/95/108 82/94/43 94/97/43
f 88/99/109 86/98/107 90/100/110
f 61/103/111 62/104/112 69/86/78
f 104/105/44 99/105/44 103/105/44
f 68/80/76 69/82/78 67/78/74
f 48/53/56 47/52/55 49/58/61
f 1/7/113 5/1/1 7/3/3
f 4/10/114 6/4/4 9/6/6
f 3/8/115 6/4/7 1/7/9
f 11/5/5 6/4/4 10/9/11
f 5/1/8 6/4/7 2/11/13
f 12/2/2 5/1/1 8/12/15
f 3/8/16 1/7/16 10/9/16
f 8/12/17 2/11/17 9/6/17
f 12/2/18 8/12/116 9/6/117
f 10/9/20 7/3/118 12/2/18
f 12/2/18 9/6/117 11/5/19
f 13/106/119 14/13/21 15/15/23
f 15/15/23 16/14/22 17/17/25
f 17/17/25 18/16/24 19/19/27
f 19/19/27 20/18/26 21/21/29
f 21/21/29 22/20/28 23/23/31
f 23/23/31 24/22/30 25/25/33
f 27/27/35 25/25/33 28/26/34
f 29/29/37 27/27/35 30/28/36
f 31/107/120 29/29/37 32/30/38
f 31/107/120 32/30/38 33/32/40
f 13/106/119 35/33/41 14/13/21
f 35/108/41 33/32/40 36/35/42
f 18/109/43 16/110/43 36/38/43
f 14/111/43 36/38/43 16/110/43
f 34/112/43 32/113/43 36/38/43
f 30/114/43 28/36/43 36/38/43
f 26/115/43 24/37/43 28/36/43
f 22/116/43 20/117/43 18/109/43
f 18/109/43 36/38/43 22/116/43
f 32/113/43 30/114/43 36/38/43
f 24/37/43 22/116/43 36/38/43
f 35/118/44 13/40/44 27/119/44
f 15/41/44 17/120/44 21/121/44
f 19/122/44 21/121/44 17/120/44
f 23/123/44 25/39/44 15/41/44
f 27/119/44 29/124/44 35/118/44
f 31/125/44 33/126/44 29/124/44
f 13/40/44 25/39/44 27/119/44
f 21/121/44 23/123/44 15/41/44
f 29/124/44 33/126/44 35/118/44
f 37/45/48 53/42/45 38/44/47
f 39/47/50 37/45/48 40/46/49
f 41/60/62 39/47/50 42/48/51
f 52/70/66 70/68/65 74/89/79
f 74/89/79 73/51/54 52/70/66
f 72/49/52 71/56/59 50/64/64
f 50/64/64 51/50/53 72/49/52
f 52/70/66 73/51/54 51/50/53
f 43/77/73 41/60/62 48/59/56
f 42/48/51 45/127/57 48/59/56
f 63/63/63 44/128/121 49/61/61
f 49/61/61 46/129/58 64/62/60
f 42/65/51 40/69/49 51/50/53
f 51/50/53 47/52/55 45/54/57
f 52/70/66 38/66/47 70/68/65
f 51/50/53 40/69/49 52/70/66
f 54/130/46 53/71/45 56/73/68
f 56/73/68 55/72/67 58/75/70
f 58/75/70 57/74/69 60/76/72
f 44/128/121 43/77/73 49/61/61
f 60/76/72 59/60/71 68/83/76
f 61/103/111 68/83/76 59/60/71
f 69/86/78 62/104/112 63/63/63
f 63/63/63 64/62/60 69/86/78
f 73/51/54 58/90/70 60/87/72
f 65/79/75 67/78/74 73/51/54
f 54/67/46 56/88/68 70/68/65
f 56/88/68 58/90/70 74/89/79
f 75/91/17 76/91/17 77/92/81
f 77/92/81 78/92/80 79/93/83
f 83/95/97 81/94/84 84/95/85
f 91/96/92 92/96/86 93/97/87
f 87/99/16 85/98/88 88/99/16
f 87/99/16 88/99/16 89/100/91
f 89/100/91 90/100/90 91/96/92
f 96/102/96 98/101/93 95/102/95
f 95/102/95 93/97/87 96/102/96
f 75/91/17 97/101/94 76/91/17
f 82/94/84 81/94/84 80/93/82
f 85/98/88 83/95/97 86/98/89
f 77/92/101 79/93/100 97/101/101
f 93/97/44 81/94/44 91/96/103
f 79/93/100 81/94/44 95/102/100
f 83/95/103 85/98/104 91/96/103
f 82/94/43 80/93/106 94/97/43
f 96/102/106 80/93/106 98/101/98
f 90/100/110 86/98/107 92/96/108
f 92/96/108 84/95/108 94/97/43
f 68/83/76 61/103/111 69/86/78
f 103/105/44 110/105/44 104/105/44
f 109/105/44 108/105/44 106/105/44
f 107/105/44 106/105/44 108/105/44
f 105/105/44 104/105/44 110/105/44
f 99/105/44 100/105/44 103/105/44
f 101/105/44 102/105/44 100/105/44
f 110/105/44 109/105/44 105/105/44
f 106/105/44 105/105/44 109/105/44
f 100/105/44 102/105/44 103/105/44
